%TF.GenerationSoftware,KiCad,Pcbnew,10.0.6*%
%TF.CreationDate,2026-09-26T20:39:47-04:00*%
%TF.ProjectId,gpsspeed,67707373-7065-4656-942e-6b696361645f,rev?*%
%TF.SameCoordinates,Original*%
%TF.FileFunction,Copper,L2,Bot*%
%TF.FilePolarity,Positive*%
%FSLAX46Y46*%
G04 Gerber Fmt 4.6, Leading zero omitted, Abs format (unit mm)*
G04 Created by KiCad (PCBNEW 10.0.6) date 2026-09-26 20:39:47*
%MOMM*%
%LPD*%
G01*
G04 APERTURE LIST*
%TA.AperFunction,ComponentPad*%
%ADD10C,0.600000*%
%TD*%
%TA.AperFunction,ComponentPad*%
%ADD11O,1.100000X1.900000*%
%TD*%
%TA.AperFunction,ComponentPad*%
%ADD12O,1.200000X1.600000*%
%TD*%
%TA.AperFunction,ComponentPad*%
%ADD13C,2.200000*%
%TD*%
%TA.AperFunction,ViaPad*%
%ADD14C,0.600000*%
%TD*%
%TA.AperFunction,Conductor*%
%ADD15C,0.200000*%
%TD*%
G04 APERTURE END LIST*
D10*
%TO.P,U1,9*%
%TO.N,GND*%
X23450000Y29900000D03*
X23450000Y28900000D03*
%TD*%
D11*
%TO.P,J3,13*%
%TO.N,GND*%
X41680000Y6930000D03*
D12*
X41680000Y2720000D03*
D11*
%TO.P,J3,14*%
X50320000Y6930000D03*
D12*
X50320000Y2720000D03*
%TD*%
D13*
%TO.P,J1,1*%
%TO.N,+12V_IN*%
X4400000Y27000000D03*
%TO.P,J1,2*%
%TO.N,GND*%
X4400000Y22000000D03*
%TO.P,J1,3*%
%TO.N,SIGNAL_OUT*%
X4400000Y17000000D03*
%TD*%
D14*
%TO.N,GND*%
X14399999Y12400001D03*
X11200000Y41200000D03*
X38775000Y38118000D03*
X14399999Y9200000D03*
X59200000Y38000000D03*
X44801000Y38372000D03*
X11200000Y6000000D03*
X44198000Y20535000D03*
X19382000Y14350000D03*
X36300000Y33650000D03*
X14399999Y22000001D03*
X18159000Y18654000D03*
X36800000Y22000001D03*
X65861000Y13562000D03*
X70480000Y13575000D03*
X33599999Y41200000D03*
X27700000Y36703000D03*
X14399999Y6000000D03*
X68800000Y38000000D03*
X30399999Y38000000D03*
X22317000Y15100000D03*
X17599999Y6000000D03*
X11200000Y2800000D03*
X1600000Y18800001D03*
X11200000Y38000000D03*
X62400000Y34800000D03*
X62400000Y2800000D03*
X65600000Y6000000D03*
X33200000Y29303000D03*
X33599999Y34800000D03*
X46400000Y2800000D03*
X59200000Y44400000D03*
X65444000Y17425000D03*
X14399999Y25200001D03*
X43200000Y2800000D03*
X62400000Y41200000D03*
X20799999Y2800000D03*
X50563000Y8494000D03*
X22317000Y17300000D03*
X4800000Y31600001D03*
X14399999Y28400001D03*
X14045000Y40600000D03*
X23999999Y9200000D03*
X65600000Y34800000D03*
X4800000Y34800000D03*
X23999999Y44400000D03*
X30399999Y31600001D03*
X65600000Y41200000D03*
X49600000Y34800000D03*
X23022000Y25350000D03*
X42400000Y11503000D03*
X14399999Y44400000D03*
X39278000Y30143000D03*
X1600000Y25200001D03*
X27199999Y41200000D03*
X14045000Y42800000D03*
X20799999Y22000001D03*
X65600000Y44400000D03*
X52752000Y29083000D03*
X17599999Y44400000D03*
X62400000Y9200000D03*
X1600000Y15600001D03*
X42787000Y39202000D03*
X1600000Y38000000D03*
X17599999Y9200000D03*
X65600000Y25200001D03*
X22800000Y3000000D03*
X68800000Y34800000D03*
X33599999Y12400001D03*
X62400000Y6000000D03*
X17380000Y14000000D03*
X31800000Y3000000D03*
X8000000Y28400001D03*
X53402000Y21765000D03*
X39248000Y29083000D03*
X65600000Y31600001D03*
X56000000Y2800000D03*
X11200000Y25200001D03*
X67106000Y14667000D03*
X27199999Y44400000D03*
X8000000Y34800000D03*
X41437000Y8494000D03*
X36202000Y20535000D03*
X62400000Y25200001D03*
X42548000Y38224000D03*
X46000000Y38650000D03*
X52877000Y39565000D03*
X20799999Y25200001D03*
X11200000Y18800001D03*
X68720000Y13575000D03*
X69758000Y19060000D03*
X8000000Y44400000D03*
X62400000Y18800001D03*
X59200000Y34800000D03*
X43002000Y28838000D03*
X30399999Y44400000D03*
X55600000Y17350000D03*
X1600000Y28400001D03*
X67691000Y13791000D03*
X53600000Y17255000D03*
X8000000Y9200000D03*
X65600000Y9200000D03*
X11500000Y43095000D03*
X4800000Y9200000D03*
X1600000Y9200000D03*
X36800000Y2800000D03*
X68800000Y31600001D03*
X36800000Y12400001D03*
X69600000Y13000000D03*
X11200000Y44400000D03*
X20799999Y9200000D03*
X68800000Y25200001D03*
X47402000Y20535000D03*
X41765000Y38924000D03*
X50117000Y38903000D03*
X70780000Y15549000D03*
X8000000Y31600001D03*
X56000000Y44400000D03*
X40916000Y39710000D03*
X33599999Y18800001D03*
X1600000Y31600001D03*
X8000000Y18800001D03*
X56000000Y38000000D03*
X46000000Y9164000D03*
X62400000Y15600001D03*
X65600000Y38000000D03*
X62400000Y38000000D03*
X49600000Y38000000D03*
X4800000Y38000000D03*
X35900000Y35445000D03*
X39278000Y39257000D03*
X17599999Y34800000D03*
X62400000Y22000001D03*
X1600000Y6000000D03*
X44399000Y39469000D03*
X59200000Y2800000D03*
X68800000Y22000001D03*
X1600000Y12400001D03*
X68800000Y9200000D03*
X8000000Y2800000D03*
X20799999Y44400000D03*
X68800000Y28400001D03*
X33599999Y25200001D03*
X22945000Y24000000D03*
X30399999Y22000001D03*
X50785000Y39679000D03*
X14399999Y2800000D03*
X56000000Y41200000D03*
X23999999Y12400001D03*
X8000000Y25200001D03*
X65600000Y28400001D03*
X30399999Y41200000D03*
X28700000Y22997000D03*
X59200000Y6000000D03*
X47292000Y38657000D03*
X59200000Y41200000D03*
X40000000Y2800000D03*
X14399999Y18800001D03*
X11200000Y15600001D03*
X56000000Y12400001D03*
X20799999Y6000000D03*
X20799999Y31600001D03*
X38100000Y18000000D03*
X49600000Y11503000D03*
X43200000Y34800000D03*
X20799999Y28400001D03*
X33599999Y9200000D03*
X36700000Y37000000D03*
X4800000Y6000000D03*
X33599999Y44400000D03*
X8000000Y12400001D03*
X1600000Y22000001D03*
X27199999Y38000000D03*
X48656000Y38768000D03*
X56127000Y24372000D03*
X52800000Y6000000D03*
X49222000Y39881000D03*
X8000000Y41200000D03*
X46400000Y34800000D03*
X22317000Y19500000D03*
X1600000Y34800000D03*
X17599999Y2800000D03*
X14045000Y38400000D03*
X8000000Y38000000D03*
X8000000Y6000000D03*
X65600000Y12400001D03*
X65600000Y2800000D03*
X27300000Y3000000D03*
X70633000Y18194000D03*
X62400000Y31600001D03*
X18200000Y20830000D03*
X52800000Y2800000D03*
X1600000Y44400000D03*
X22317000Y21700000D03*
X45999000Y39731000D03*
X62400000Y44400000D03*
X34600000Y29250000D03*
X62400000Y28400001D03*
X67106000Y16733000D03*
X69600000Y18000000D03*
X11200000Y22000001D03*
X62400000Y12400001D03*
X40537000Y38706000D03*
X4800000Y12400001D03*
X8000000Y22000001D03*
%TO.N,VIN_BUCK*%
X21558000Y27331300D03*
X27586500Y24336800D03*
%TO.N,LED_FIX_IO*%
X48339400Y30829700D03*
X30224000Y7147300D03*
%TO.N,PULSE_IO*%
X21650800Y19974200D03*
X44932100Y30832800D03*
%TO.N,VBUS*%
X41317400Y14568800D03*
X18139000Y33660000D03*
%TO.N,USB_D+*%
X43976800Y30985600D03*
X43952000Y10006300D03*
%TO.N,USB_D-*%
X48096500Y11514300D03*
X49741400Y30765800D03*
X46717900Y5065300D03*
%TO.N,USB_CC2*%
X47778700Y9734700D03*
X50892000Y9998500D03*
%TO.N,+3V3*%
X21400000Y37313800D03*
X38217200Y28729000D03*
X43526500Y26257900D03*
X38740200Y33876500D03*
X48157600Y12893800D03*
X33112000Y33106300D03*
X39064500Y35756300D03*
%TO.N,ESP_IO7*%
X47552000Y27331300D03*
X46555000Y20406600D03*
%TO.N,LED_WIFI_IO*%
X36000000Y7147300D03*
X44290200Y28347300D03*
%TO.N,GPS_TX*%
X59362300Y24443800D03*
X55036000Y34113500D03*
X56265100Y7069700D03*
%TO.N,+12V_F*%
X12896000Y12375000D03*
X12896000Y29941800D03*
%TO.N,GPS_RX*%
X56174600Y34028200D03*
X55438800Y23677000D03*
%TO.N,GPS_PPS*%
X42696800Y27134300D03*
X44808300Y22516500D03*
%TO.N,GPS_NRST*%
X58868300Y14220300D03*
X41777600Y27161200D03*
%TO.N,ESP_IO6*%
X44411600Y27522000D03*
X45108300Y21667300D03*
%TD*%
%TO.N,VIN_BUCK*%
D15*
X24592000Y27331300D02*
X21558000Y27331300D01*
X27586500Y24336800D02*
X24592000Y27331300D01*
%TO.N,LED_FIX_IO*%
X42577800Y29893200D02*
X47402900Y29893200D01*
X47402900Y29893200D02*
X48339400Y30829700D01*
X30224000Y7147300D02*
X30224000Y17539400D01*
X30224000Y17539400D02*
X42577800Y29893200D01*
%TO.N,PULSE_IO*%
X21650800Y19974200D02*
X25286600Y23610000D01*
X44483100Y30383800D02*
X44932100Y30832800D01*
X25286600Y23610000D02*
X34688600Y23610000D01*
X41462400Y30383800D02*
X44483100Y30383800D01*
X34688600Y23610000D02*
X41462400Y30383800D01*
%TO.N,VBUS*%
X29953000Y6525700D02*
X36241200Y6525700D01*
X29271000Y11503200D02*
X29271000Y7207700D01*
X18139000Y33660000D02*
X18139000Y22635200D01*
X41317400Y11601900D02*
X41317400Y14568800D01*
X29271000Y7207700D02*
X29953000Y6525700D01*
X36241200Y6525700D02*
X41317400Y11601900D01*
X18139000Y22635200D02*
X29271000Y11503200D01*
%TO.N,USB_D+*%
X48585100Y31442200D02*
X44433400Y31442200D01*
X48972900Y31054400D02*
X48585100Y31442200D01*
X43952000Y10006300D02*
X48972900Y15027200D01*
X48972900Y15027200D02*
X48972900Y31054400D01*
X44433400Y31442200D02*
X43976800Y30985600D01*
%TO.N,USB_D-*%
X46717900Y10135700D02*
X48096500Y11514300D01*
X46717900Y5065300D02*
X46717900Y10135700D01*
X49741400Y13159200D02*
X48096500Y11514300D01*
X49741400Y30765800D02*
X49741400Y13159200D01*
%TO.N,USB_CC2*%
X50892000Y9998500D02*
X50628200Y9734700D01*
X50628200Y9734700D02*
X47778700Y9734700D01*
%TO.N,+3V3*%
X33112000Y33106300D02*
X37489300Y28729000D01*
X43323500Y26054900D02*
X43526500Y26257900D01*
X43323500Y9755700D02*
X43323500Y26054900D01*
X43719200Y9360000D02*
X43323500Y9755700D01*
X38217200Y28729000D02*
X38217200Y33353500D01*
X48157600Y12893800D02*
X44623800Y9360000D01*
X44623800Y9360000D02*
X43719200Y9360000D01*
X25607500Y33106300D02*
X33112000Y33106300D01*
X39064500Y35756300D02*
X38740200Y35432000D01*
X37489300Y28729000D02*
X38217200Y28729000D01*
X38740200Y35432000D02*
X38740200Y33876500D01*
X38217200Y33353500D02*
X38740200Y33876500D01*
X21400000Y37313800D02*
X25607500Y33106300D01*
%TO.N,ESP_IO7*%
X47552000Y27331300D02*
X46555000Y26334300D01*
X46555000Y26334300D02*
X46555000Y20406600D01*
%TO.N,LED_WIFI_IO*%
X44290200Y28405900D02*
X43242100Y29454000D01*
X44290200Y28347300D02*
X44290200Y28405900D01*
X40715700Y11863000D02*
X36000000Y7147300D01*
X42758500Y29454000D02*
X40715700Y27411200D01*
X40715700Y27411200D02*
X40715700Y11863000D01*
X43242100Y29454000D02*
X42758500Y29454000D01*
%TO.N,GPS_TX*%
X59515900Y10320500D02*
X56265100Y7069700D01*
X59362300Y24443800D02*
X59515900Y24290200D01*
X55586200Y34663700D02*
X56445700Y34663700D01*
X55036000Y34113500D02*
X55586200Y34663700D01*
X59515900Y24290200D02*
X59515900Y10320500D01*
X56445700Y34663700D02*
X59362300Y31747100D01*
X59362300Y31747100D02*
X59362300Y24443800D01*
%TO.N,+12V_F*%
X12896000Y29941800D02*
X12896000Y12375000D01*
%TO.N,GPS_RX*%
X56174600Y34028200D02*
X55438800Y33292400D01*
X55438800Y33292400D02*
X55438800Y23677000D01*
%TO.N,GPS_PPS*%
X44808300Y22516500D02*
X44808300Y25840100D01*
X44808300Y25840100D02*
X43514100Y27134300D01*
X43514100Y27134300D02*
X42696800Y27134300D01*
%TO.N,GPS_NRST*%
X46443000Y4422100D02*
X41777600Y9087500D01*
X49464200Y4422100D02*
X46443000Y4422100D01*
X41919100Y14319600D02*
X41919100Y27019700D01*
X41777600Y9087500D02*
X41777600Y14178100D01*
X41777600Y14178100D02*
X41919100Y14319600D01*
X58868300Y14220300D02*
X58868300Y13826200D01*
X58868300Y13826200D02*
X49464200Y4422100D01*
X41919100Y27019700D02*
X41777600Y27161200D01*
%TO.N,ESP_IO6*%
X45410000Y26523600D02*
X44411600Y27522000D01*
X45108300Y21667300D02*
X45410000Y21969000D01*
X45410000Y21969000D02*
X45410000Y26523600D01*
%TD*%
%TA.AperFunction,Conductor*%
%TO.N,GND*%
G36*
X42475675Y26571867D02*
G01*
X42617743Y26533800D01*
X42617746Y26533800D01*
X42775854Y26533800D01*
X42775857Y26533800D01*
X42786981Y26536781D01*
X42856827Y26535120D01*
X42914691Y26495960D01*
X42942198Y26431732D01*
X42938850Y26384914D01*
X42926000Y26336957D01*
X42926000Y26178845D01*
X42927061Y26170787D01*
X42925442Y26170574D01*
X42925443Y26116745D01*
X42923000Y26107629D01*
X42923000Y9702974D01*
X42950293Y9601111D01*
X42976656Y9555450D01*
X43003020Y9509787D01*
X43398719Y9114088D01*
X43398720Y9114087D01*
X43473287Y9039520D01*
X43564613Y8986793D01*
X43666473Y8959500D01*
X43666475Y8959500D01*
X44676525Y8959500D01*
X44676527Y8959500D01*
X44778388Y8986793D01*
X44869713Y9039520D01*
X46105720Y10275528D01*
X46167042Y10309012D01*
X46236734Y10304028D01*
X46292667Y10262156D01*
X46317084Y10196692D01*
X46317400Y10187846D01*
X46317400Y5565398D01*
X46297715Y5498359D01*
X46281081Y5477717D01*
X46237381Y5434018D01*
X46237377Y5434013D01*
X46230365Y5421868D01*
X46179795Y5373655D01*
X46111187Y5360436D01*
X46046324Y5386408D01*
X46035300Y5396193D01*
X42214419Y9217074D01*
X42180934Y9278397D01*
X42178100Y9304755D01*
X42178100Y13960845D01*
X42197785Y14027884D01*
X42214419Y14048526D01*
X42239580Y14073687D01*
X42292307Y14165012D01*
X42319600Y14266873D01*
X42319600Y14372327D01*
X42319600Y26452088D01*
X42339285Y26519127D01*
X42392089Y26564882D01*
X42461247Y26574826D01*
X42475675Y26571867D01*
G37*
%TD.AperFunction*%
%TA.AperFunction,Conductor*%
G36*
X42704579Y7587880D02*
G01*
X42730901Y7567806D01*
X43136526Y7162181D01*
X43170011Y7100858D01*
X43165027Y7031166D01*
X43123155Y6975233D01*
X43057691Y6950816D01*
X43048845Y6950500D01*
X43037525Y6950500D01*
X42908993Y6916060D01*
X42897511Y6912983D01*
X42771988Y6840512D01*
X42771982Y6840507D01*
X42683419Y6751943D01*
X42622096Y6718458D01*
X42552404Y6723442D01*
X42542200Y6730000D01*
X41979999Y6730000D01*
X41979999Y7130000D01*
X42530000Y7130000D01*
X42530000Y7413721D01*
X42521603Y7455933D01*
X42527830Y7525524D01*
X42570692Y7580702D01*
X42636582Y7603947D01*
X42704579Y7587880D01*
G37*
%TD.AperFunction*%
%TA.AperFunction,Conductor*%
G36*
X40234534Y26881028D02*
G01*
X40290467Y26839156D01*
X40314884Y26773692D01*
X40315200Y26764846D01*
X40315200Y12080255D01*
X40295515Y12013216D01*
X40278881Y11992574D01*
X36070426Y7784119D01*
X36009103Y7750634D01*
X35982745Y7747800D01*
X35920943Y7747800D01*
X35768216Y7706877D01*
X35768209Y7706874D01*
X35631290Y7627825D01*
X35631282Y7627819D01*
X35519481Y7516018D01*
X35519475Y7516010D01*
X35440426Y7379091D01*
X35440423Y7379084D01*
X35399500Y7226357D01*
X35399500Y7068245D01*
X35399744Y7066392D01*
X35399500Y7064827D01*
X35399500Y7060116D01*
X35398766Y7060116D01*
X35388982Y6997356D01*
X35342605Y6945098D01*
X35276806Y6926200D01*
X30947194Y6926200D01*
X30880155Y6945885D01*
X30834400Y6998689D01*
X30825196Y7060116D01*
X30824500Y7060116D01*
X30824500Y7064764D01*
X30824256Y7066392D01*
X30824500Y7068245D01*
X30824500Y7226355D01*
X30824500Y7226357D01*
X30783577Y7379084D01*
X30763580Y7413721D01*
X30704524Y7516010D01*
X30704518Y7516018D01*
X30660819Y7559717D01*
X30627334Y7621040D01*
X30624500Y7647398D01*
X30624500Y17322146D01*
X30644185Y17389185D01*
X30660819Y17409827D01*
X40103519Y26852527D01*
X40164842Y26886012D01*
X40234534Y26881028D01*
G37*
%TD.AperFunction*%
%TA.AperFunction,Conductor*%
G36*
X48426761Y30228373D02*
G01*
X48486143Y30226966D01*
X48544010Y30187810D01*
X48571521Y30123585D01*
X48572400Y30108850D01*
X48572400Y15244455D01*
X48552715Y15177416D01*
X48536081Y15156774D01*
X44022426Y10643119D01*
X43961103Y10609634D01*
X43934745Y10606800D01*
X43872943Y10606800D01*
X43872941Y10606800D01*
X43864887Y10605739D01*
X43864447Y10609074D01*
X43810155Y10610407D01*
X43752322Y10649613D01*
X43724866Y10713862D01*
X43724000Y10728491D01*
X43724000Y20485657D01*
X45954500Y20485657D01*
X45954500Y20327543D01*
X45979702Y20233490D01*
X45995423Y20174817D01*
X45995426Y20174810D01*
X46074475Y20037891D01*
X46074479Y20037886D01*
X46074480Y20037884D01*
X46186284Y19926080D01*
X46186286Y19926079D01*
X46186290Y19926076D01*
X46323209Y19847027D01*
X46323216Y19847023D01*
X46475943Y19806100D01*
X46475945Y19806100D01*
X46634055Y19806100D01*
X46634057Y19806100D01*
X46786784Y19847023D01*
X46923716Y19926080D01*
X47035520Y20037884D01*
X47114577Y20174816D01*
X47155500Y20327543D01*
X47155500Y20485657D01*
X47114577Y20638384D01*
X47077521Y20702568D01*
X47035524Y20775310D01*
X47035518Y20775318D01*
X46991819Y20819017D01*
X46958334Y20880340D01*
X46955500Y20906698D01*
X46955500Y26117045D01*
X46975185Y26184084D01*
X46991819Y26204726D01*
X47481574Y26694481D01*
X47542897Y26727966D01*
X47569255Y26730800D01*
X47631055Y26730800D01*
X47631057Y26730800D01*
X47783784Y26771723D01*
X47920716Y26850780D01*
X48032520Y26962584D01*
X48111577Y27099516D01*
X48152500Y27252243D01*
X48152500Y27410357D01*
X48111577Y27563084D01*
X48089655Y27601055D01*
X48032524Y27700010D01*
X48032518Y27700018D01*
X47920717Y27811819D01*
X47920709Y27811825D01*
X47783790Y27890874D01*
X47783786Y27890876D01*
X47783784Y27890877D01*
X47631057Y27931800D01*
X47472943Y27931800D01*
X47320216Y27890877D01*
X47320209Y27890874D01*
X47183290Y27811825D01*
X47183282Y27811819D01*
X47071481Y27700018D01*
X47071475Y27700010D01*
X46992426Y27563091D01*
X46992423Y27563084D01*
X46951500Y27410357D01*
X46951500Y27348555D01*
X46931815Y27281516D01*
X46915181Y27260874D01*
X46234522Y26580216D01*
X46234518Y26580210D01*
X46181792Y26488888D01*
X46181793Y26488887D01*
X46154500Y26387027D01*
X46154500Y20906698D01*
X46134815Y20839659D01*
X46118181Y20819017D01*
X46074481Y20775318D01*
X46074475Y20775310D01*
X45995426Y20638391D01*
X45995423Y20638384D01*
X45954500Y20485657D01*
X43724000Y20485657D01*
X43724000Y25606938D01*
X43743685Y25673977D01*
X43785999Y25714325D01*
X43895216Y25777380D01*
X44007020Y25889184D01*
X44007022Y25889189D01*
X44012239Y25894405D01*
X44073562Y25927890D01*
X44143254Y25922906D01*
X44187602Y25894405D01*
X44371481Y25710526D01*
X44404966Y25649203D01*
X44407800Y25622845D01*
X44407800Y23016598D01*
X44388115Y22949559D01*
X44371481Y22928917D01*
X44327781Y22885218D01*
X44327775Y22885210D01*
X44248726Y22748291D01*
X44248723Y22748284D01*
X44207800Y22595557D01*
X44207800Y22437443D01*
X44236168Y22331574D01*
X44248723Y22284717D01*
X44248726Y22284710D01*
X44327775Y22147791D01*
X44327779Y22147786D01*
X44327780Y22147784D01*
X44439584Y22035980D01*
X44439585Y22035979D01*
X44439587Y22035978D01*
X44483467Y22010644D01*
X44531682Y21960077D01*
X44544906Y21891471D01*
X44541242Y21871164D01*
X44507800Y21746357D01*
X44507800Y21588244D01*
X44548723Y21435517D01*
X44548726Y21435510D01*
X44627775Y21298591D01*
X44627779Y21298586D01*
X44627780Y21298584D01*
X44739584Y21186780D01*
X44739586Y21186779D01*
X44739590Y21186776D01*
X44783313Y21161533D01*
X44876516Y21107723D01*
X45029243Y21066800D01*
X45029245Y21066800D01*
X45187355Y21066800D01*
X45187357Y21066800D01*
X45340084Y21107723D01*
X45477016Y21186780D01*
X45588820Y21298584D01*
X45667877Y21435516D01*
X45708800Y21588243D01*
X45708800Y21652741D01*
X45727248Y21715569D01*
X45726416Y21716049D01*
X45728396Y21719480D01*
X45728485Y21719780D01*
X45728960Y21720457D01*
X45730476Y21723084D01*
X45730480Y21723087D01*
X45783207Y21814412D01*
X45810500Y21916273D01*
X45810500Y22021727D01*
X45810500Y26576327D01*
X45783207Y26678187D01*
X45783207Y26678188D01*
X45730480Y26769513D01*
X45048419Y27451574D01*
X45014934Y27512897D01*
X45012100Y27539255D01*
X45012100Y27601055D01*
X45012100Y27601057D01*
X44971177Y27753784D01*
X44950367Y27789828D01*
X44892124Y27890710D01*
X44892118Y27890718D01*
X44850273Y27932563D01*
X44816788Y27993886D01*
X44821772Y28063578D01*
X44830565Y28082242D01*
X44849777Y28115516D01*
X44890700Y28268243D01*
X44890700Y28426357D01*
X44849777Y28579084D01*
X44808867Y28649943D01*
X44770724Y28716010D01*
X44770718Y28716018D01*
X44658917Y28827819D01*
X44658909Y28827825D01*
X44521990Y28906874D01*
X44521986Y28906876D01*
X44521984Y28906877D01*
X44369257Y28947800D01*
X44369256Y28947800D01*
X44366055Y28947800D01*
X44363453Y28948564D01*
X44361197Y28948861D01*
X44361243Y28949213D01*
X44299016Y28967485D01*
X44278374Y28984119D01*
X43981474Y29281019D01*
X43947989Y29342342D01*
X43952973Y29412034D01*
X43994845Y29467967D01*
X44060309Y29492384D01*
X44069155Y29492700D01*
X47455625Y29492700D01*
X47455627Y29492700D01*
X47557488Y29519993D01*
X47648813Y29572720D01*
X48268974Y30192881D01*
X48330297Y30226366D01*
X48356655Y30229200D01*
X48418455Y30229200D01*
X48418457Y30229200D01*
X48418458Y30229201D01*
X48426513Y30230261D01*
X48426761Y30228373D01*
G37*
%TD.AperFunction*%
%TA.AperFunction,Conductor*%
G36*
X41869185Y29963615D02*
G01*
X41914940Y29910811D01*
X41924884Y29841653D01*
X41895859Y29778097D01*
X41889827Y29771619D01*
X29903522Y17785316D01*
X29903518Y17785310D01*
X29850792Y17693988D01*
X29850793Y17693987D01*
X29823500Y17592127D01*
X29823500Y11810016D01*
X29803815Y11742977D01*
X29751011Y11697222D01*
X29681853Y11687278D01*
X29618297Y11716303D01*
X29596488Y11742716D01*
X29596426Y11742667D01*
X29595083Y11744417D01*
X29592117Y11748009D01*
X29591480Y11749113D01*
X29516913Y11823680D01*
X22020895Y19319698D01*
X21987410Y19381021D01*
X21992394Y19450713D01*
X22020891Y19495056D01*
X22131320Y19605484D01*
X22210377Y19742416D01*
X22251300Y19895143D01*
X22251300Y19956946D01*
X22270985Y20023985D01*
X22287619Y20044627D01*
X25416173Y23173181D01*
X25477496Y23206666D01*
X25503854Y23209500D01*
X34741325Y23209500D01*
X34741327Y23209500D01*
X34843188Y23236793D01*
X34934513Y23289520D01*
X41591974Y29946981D01*
X41653297Y29980466D01*
X41679655Y29983300D01*
X41802146Y29983300D01*
X41869185Y29963615D01*
G37*
%TD.AperFunction*%
%TA.AperFunction,Conductor*%
G36*
X43091884Y29033815D02*
G01*
X43112526Y29017181D01*
X43653381Y28476326D01*
X43686866Y28415003D01*
X43689700Y28388645D01*
X43689700Y28268243D01*
X43716179Y28169424D01*
X43730623Y28115517D01*
X43730626Y28115510D01*
X43809675Y27978591D01*
X43809681Y27978583D01*
X43851526Y27936738D01*
X43885011Y27875415D01*
X43880027Y27805723D01*
X43871233Y27787059D01*
X43852025Y27753789D01*
X43852023Y27753786D01*
X43810266Y27597945D01*
X43773901Y27538285D01*
X43711053Y27507756D01*
X43658398Y27510264D01*
X43566827Y27534800D01*
X43566826Y27534800D01*
X43196898Y27534800D01*
X43129859Y27554485D01*
X43109217Y27571119D01*
X43065517Y27614819D01*
X43065509Y27614825D01*
X42928590Y27693874D01*
X42928586Y27693876D01*
X42928584Y27693877D01*
X42775857Y27734800D01*
X42617743Y27734800D01*
X42465016Y27693877D01*
X42465009Y27693874D01*
X42328087Y27614824D01*
X42326727Y27613779D01*
X42325372Y27613256D01*
X42321045Y27610757D01*
X42320655Y27611432D01*
X42261557Y27588586D01*
X42193112Y27602625D01*
X42163561Y27624475D01*
X42146317Y27641719D01*
X42146309Y27641725D01*
X42009390Y27720774D01*
X42009385Y27720777D01*
X41946745Y27737561D01*
X41887396Y27753464D01*
X41827737Y27789828D01*
X41797208Y27852675D01*
X41805503Y27922051D01*
X41831807Y27960916D01*
X42888074Y29017181D01*
X42949397Y29050666D01*
X42975755Y29053500D01*
X43024845Y29053500D01*
X43091884Y29033815D01*
G37*
%TD.AperFunction*%
%TA.AperFunction,Conductor*%
G36*
X36943039Y45679815D02*
G01*
X36988794Y45627011D01*
X37000000Y45575501D01*
X37000000Y40250000D01*
X55000000Y40250000D01*
X55000000Y42518005D01*
X66599500Y42518005D01*
X66599500Y42281996D01*
X66599501Y42281980D01*
X66630306Y42047990D01*
X66691394Y41820007D01*
X66781714Y41601955D01*
X66781719Y41601944D01*
X66852677Y41479043D01*
X66899727Y41397550D01*
X66899729Y41397547D01*
X66899730Y41397546D01*
X67043406Y41210303D01*
X67043412Y41210296D01*
X67210295Y41043413D01*
X67210301Y41043408D01*
X67397550Y40899727D01*
X67528918Y40823882D01*
X67601943Y40781720D01*
X67601948Y40781718D01*
X67601951Y40781716D01*
X67820007Y40691394D01*
X68047986Y40630307D01*
X68281989Y40599500D01*
X68281996Y40599500D01*
X68518004Y40599500D01*
X68518011Y40599500D01*
X68752014Y40630307D01*
X68979993Y40691394D01*
X69198049Y40781716D01*
X69402450Y40899727D01*
X69589699Y41043408D01*
X69756592Y41210301D01*
X69900273Y41397550D01*
X70018284Y41601951D01*
X70108606Y41820007D01*
X70169693Y42047986D01*
X70200500Y42281989D01*
X70200500Y42518011D01*
X70169693Y42752014D01*
X70108606Y42979993D01*
X70018284Y43198049D01*
X70018282Y43198052D01*
X70018280Y43198057D01*
X69976118Y43271082D01*
X69900273Y43402450D01*
X69756592Y43589699D01*
X69756587Y43589705D01*
X69589704Y43756588D01*
X69589697Y43756594D01*
X69402454Y43900270D01*
X69402453Y43900271D01*
X69402450Y43900273D01*
X69320957Y43947323D01*
X69198056Y44018281D01*
X69198045Y44018286D01*
X68979993Y44108606D01*
X68752010Y44169694D01*
X68518020Y44200499D01*
X68518017Y44200500D01*
X68518011Y44200500D01*
X68281989Y44200500D01*
X68281983Y44200500D01*
X68281979Y44200499D01*
X68047989Y44169694D01*
X67820006Y44108606D01*
X67601954Y44018286D01*
X67601943Y44018281D01*
X67397545Y43900270D01*
X67210302Y43756594D01*
X67210295Y43756588D01*
X67043412Y43589705D01*
X67043406Y43589698D01*
X66899730Y43402455D01*
X66781719Y43198057D01*
X66781714Y43198046D01*
X66691394Y42979994D01*
X66630306Y42752011D01*
X66599501Y42518021D01*
X66599500Y42518005D01*
X55000000Y42518005D01*
X55000000Y45575500D01*
X55019685Y45642539D01*
X55072489Y45688294D01*
X55124000Y45699500D01*
X69952406Y45699500D01*
X69995572Y45699500D01*
X70004418Y45699184D01*
X70233024Y45682835D01*
X70250525Y45680318D01*
X70470143Y45632544D01*
X70487102Y45627565D01*
X70697698Y45549016D01*
X70713778Y45541672D01*
X70911036Y45433961D01*
X70925919Y45424396D01*
X71105836Y45289712D01*
X71119207Y45278126D01*
X71278125Y45119208D01*
X71289711Y45105837D01*
X71424395Y44925920D01*
X71433960Y44911037D01*
X71541668Y44713785D01*
X71549018Y44697692D01*
X71627561Y44487111D01*
X71632545Y44470135D01*
X71680316Y44250532D01*
X71682834Y44233020D01*
X71699184Y44004420D01*
X71699500Y43995574D01*
X71699500Y2004428D01*
X71699184Y1995582D01*
X71682834Y1766981D01*
X71680316Y1749469D01*
X71632545Y1529866D01*
X71627561Y1512890D01*
X71549018Y1302309D01*
X71541668Y1286216D01*
X71433960Y1088964D01*
X71424395Y1074081D01*
X71289711Y894164D01*
X71278125Y880793D01*
X71119207Y721875D01*
X71105836Y710289D01*
X70925919Y575605D01*
X70911036Y566040D01*
X70713784Y458332D01*
X70697691Y450982D01*
X70487110Y372439D01*
X70470134Y367455D01*
X70250531Y319684D01*
X70233019Y317166D01*
X70004418Y300816D01*
X69995572Y300500D01*
X2004428Y300500D01*
X1995582Y300816D01*
X1766980Y317166D01*
X1749468Y319684D01*
X1529865Y367455D01*
X1512889Y372439D01*
X1302308Y450982D01*
X1286215Y458332D01*
X1088963Y566040D01*
X1074080Y575605D01*
X894163Y710289D01*
X880792Y721875D01*
X721874Y880793D01*
X710288Y894164D01*
X575604Y1074081D01*
X566039Y1088964D01*
X458331Y1286216D01*
X450984Y1302302D01*
X372435Y1512898D01*
X367456Y1529857D01*
X319682Y1749475D01*
X317165Y1766981D01*
X314839Y1799500D01*
X300816Y1995582D01*
X300500Y2004428D01*
X300500Y3718005D01*
X1799500Y3718005D01*
X1799500Y3481996D01*
X1799501Y3481980D01*
X1817362Y3346308D01*
X1830307Y3247986D01*
X1853867Y3160059D01*
X1891394Y3020007D01*
X1981714Y2801955D01*
X1981719Y2801944D01*
X2052677Y2679043D01*
X2099727Y2597550D01*
X2099729Y2597547D01*
X2099730Y2597546D01*
X2243406Y2410303D01*
X2243412Y2410296D01*
X2410295Y2243413D01*
X2410302Y2243407D01*
X2520306Y2158999D01*
X2597550Y2099727D01*
X2728918Y2023882D01*
X2801943Y1981720D01*
X2801948Y1981718D01*
X2801951Y1981716D01*
X3020007Y1891394D01*
X3247986Y1830307D01*
X3481989Y1799500D01*
X3481996Y1799500D01*
X3718004Y1799500D01*
X3718011Y1799500D01*
X3952014Y1830307D01*
X4179993Y1891394D01*
X4398049Y1981716D01*
X4602450Y2099727D01*
X4789699Y2243408D01*
X4956592Y2410301D01*
X5100273Y2597550D01*
X5218284Y2801951D01*
X5303901Y3008647D01*
X40780000Y3008647D01*
X40780000Y2920000D01*
X41380001Y2920000D01*
X41380001Y2520000D01*
X40780000Y2520000D01*
X40780000Y2431354D01*
X40814584Y2257488D01*
X40814586Y2257480D01*
X40882428Y2093693D01*
X40882433Y2093684D01*
X40980923Y1946284D01*
X40980926Y1946280D01*
X41106279Y1820927D01*
X41106283Y1820924D01*
X41253683Y1722434D01*
X41253696Y1722427D01*
X41417474Y1654589D01*
X41417482Y1654587D01*
X41480000Y1642152D01*
X41480000Y2295737D01*
X41495796Y2279941D01*
X41564205Y2240445D01*
X41640504Y2220001D01*
X41719496Y2220001D01*
X41795795Y2240445D01*
X41864204Y2279941D01*
X41880000Y2295737D01*
X41880000Y1642153D01*
X41942517Y1654587D01*
X41942525Y1654589D01*
X42106303Y1722427D01*
X42106316Y1722434D01*
X42253716Y1820924D01*
X42253720Y1820927D01*
X42379073Y1946280D01*
X42379076Y1946284D01*
X42477566Y2093684D01*
X42477571Y2093693D01*
X42545413Y2257480D01*
X42545415Y2257488D01*
X42579999Y2431354D01*
X42580000Y2431357D01*
X42580000Y2520000D01*
X41979999Y2520000D01*
X41979999Y2920000D01*
X42580000Y2920000D01*
X42580000Y3008643D01*
X42579999Y3008647D01*
X49420000Y3008647D01*
X49420000Y2920000D01*
X50020001Y2920000D01*
X50020001Y2520000D01*
X49420000Y2520000D01*
X49420000Y2431354D01*
X49454584Y2257488D01*
X49454586Y2257480D01*
X49522428Y2093693D01*
X49522433Y2093684D01*
X49620923Y1946284D01*
X49620926Y1946280D01*
X49746279Y1820927D01*
X49746283Y1820924D01*
X49893683Y1722434D01*
X49893696Y1722427D01*
X50057474Y1654589D01*
X50057482Y1654587D01*
X50120000Y1642152D01*
X50120000Y2295737D01*
X50135796Y2279941D01*
X50204205Y2240445D01*
X50280504Y2220001D01*
X50359496Y2220001D01*
X50435795Y2240445D01*
X50504204Y2279941D01*
X50520000Y2295737D01*
X50520000Y1642153D01*
X50582517Y1654587D01*
X50582525Y1654589D01*
X50746303Y1722427D01*
X50746316Y1722434D01*
X50893716Y1820924D01*
X50893720Y1820927D01*
X51019073Y1946280D01*
X51019076Y1946284D01*
X51117566Y2093684D01*
X51117571Y2093693D01*
X51185413Y2257480D01*
X51185415Y2257488D01*
X51219999Y2431354D01*
X51220000Y2431357D01*
X51220000Y2520000D01*
X50619999Y2520000D01*
X50619999Y2920000D01*
X51220000Y2920000D01*
X51220000Y3008643D01*
X51219999Y3008647D01*
X51185415Y3182513D01*
X51185413Y3182521D01*
X51117571Y3346308D01*
X51117566Y3346317D01*
X51019076Y3493717D01*
X51019073Y3493721D01*
X50893720Y3619074D01*
X50893717Y3619076D01*
X50746316Y3717567D01*
X50746307Y3717572D01*
X50745262Y3718005D01*
X66599500Y3718005D01*
X66599500Y3481996D01*
X66599501Y3481980D01*
X66617362Y3346308D01*
X66630307Y3247986D01*
X66653867Y3160059D01*
X66691394Y3020007D01*
X66781714Y2801955D01*
X66781719Y2801944D01*
X66852677Y2679043D01*
X66899727Y2597550D01*
X66899729Y2597547D01*
X66899730Y2597546D01*
X67043406Y2410303D01*
X67043412Y2410296D01*
X67210295Y2243413D01*
X67210302Y2243407D01*
X67320306Y2158999D01*
X67397550Y2099727D01*
X67528918Y2023882D01*
X67601943Y1981720D01*
X67601948Y1981718D01*
X67601951Y1981716D01*
X67820007Y1891394D01*
X68047986Y1830307D01*
X68281989Y1799500D01*
X68281996Y1799500D01*
X68518004Y1799500D01*
X68518011Y1799500D01*
X68752014Y1830307D01*
X68979993Y1891394D01*
X69198049Y1981716D01*
X69402450Y2099727D01*
X69589699Y2243408D01*
X69756592Y2410301D01*
X69900273Y2597550D01*
X70018284Y2801951D01*
X70108606Y3020007D01*
X70169693Y3247986D01*
X70200500Y3481989D01*
X70200500Y3718011D01*
X70169693Y3952014D01*
X70108606Y4179993D01*
X70018284Y4398049D01*
X70018282Y4398052D01*
X70018280Y4398057D01*
X69976118Y4471082D01*
X69900273Y4602450D01*
X69756592Y4789699D01*
X69756587Y4789705D01*
X69589704Y4956588D01*
X69589697Y4956594D01*
X69402454Y5100270D01*
X69402453Y5100271D01*
X69402450Y5100273D01*
X69320957Y5147323D01*
X69198056Y5218281D01*
X69198045Y5218286D01*
X68979993Y5308606D01*
X68752010Y5369694D01*
X68518020Y5400499D01*
X68518017Y5400500D01*
X68518011Y5400500D01*
X68281989Y5400500D01*
X68281983Y5400500D01*
X68281979Y5400499D01*
X68047989Y5369694D01*
X67820006Y5308606D01*
X67601954Y5218286D01*
X67601943Y5218281D01*
X67397545Y5100270D01*
X67210302Y4956594D01*
X67210295Y4956588D01*
X67043412Y4789705D01*
X67043406Y4789698D01*
X66899730Y4602455D01*
X66781719Y4398057D01*
X66781714Y4398046D01*
X66691394Y4179994D01*
X66630306Y3952011D01*
X66599501Y3718021D01*
X66599500Y3718005D01*
X50745262Y3718005D01*
X50582520Y3785414D01*
X50582512Y3785416D01*
X50520000Y3797851D01*
X50520000Y3144263D01*
X50504204Y3160059D01*
X50435795Y3199555D01*
X50359496Y3219999D01*
X50280504Y3219999D01*
X50204205Y3199555D01*
X50135796Y3160059D01*
X50120000Y3144263D01*
X50120000Y3797851D01*
X50057487Y3785416D01*
X50057479Y3785414D01*
X49893692Y3717572D01*
X49893683Y3717567D01*
X49746283Y3619077D01*
X49746279Y3619074D01*
X49620926Y3493721D01*
X49620923Y3493717D01*
X49522433Y3346317D01*
X49522428Y3346308D01*
X49454586Y3182521D01*
X49454584Y3182513D01*
X49420000Y3008647D01*
X42579999Y3008647D01*
X42545415Y3182513D01*
X42545413Y3182521D01*
X42477571Y3346308D01*
X42477566Y3346317D01*
X42379076Y3493717D01*
X42379073Y3493721D01*
X42253720Y3619074D01*
X42253716Y3619077D01*
X42106316Y3717567D01*
X42106307Y3717572D01*
X41942520Y3785414D01*
X41942512Y3785416D01*
X41880000Y3797851D01*
X41880000Y3144263D01*
X41864204Y3160059D01*
X41795795Y3199555D01*
X41719496Y3219999D01*
X41640504Y3219999D01*
X41564205Y3199555D01*
X41495796Y3160059D01*
X41480000Y3144263D01*
X41480000Y3797851D01*
X41417487Y3785416D01*
X41417479Y3785414D01*
X41253692Y3717572D01*
X41253683Y3717567D01*
X41106283Y3619077D01*
X41106279Y3619074D01*
X40980926Y3493721D01*
X40980923Y3493717D01*
X40882433Y3346317D01*
X40882428Y3346308D01*
X40814586Y3182521D01*
X40814584Y3182513D01*
X40780000Y3008647D01*
X5303901Y3008647D01*
X5308606Y3020007D01*
X5369693Y3247986D01*
X5400500Y3481989D01*
X5400500Y3718011D01*
X5369693Y3952014D01*
X5308606Y4179993D01*
X5218284Y4398049D01*
X5218282Y4398052D01*
X5218280Y4398057D01*
X5176118Y4471082D01*
X5100273Y4602450D01*
X4956592Y4789699D01*
X4956587Y4789705D01*
X4789704Y4956588D01*
X4789697Y4956594D01*
X4602454Y5100270D01*
X4602453Y5100271D01*
X4602450Y5100273D01*
X4520957Y5147323D01*
X4398056Y5218281D01*
X4398045Y5218286D01*
X4179993Y5308606D01*
X3952010Y5369694D01*
X3718020Y5400499D01*
X3718017Y5400500D01*
X3718011Y5400500D01*
X3481989Y5400500D01*
X3481983Y5400500D01*
X3481979Y5400499D01*
X3247989Y5369694D01*
X3020006Y5308606D01*
X2801954Y5218286D01*
X2801943Y5218281D01*
X2597545Y5100270D01*
X2410302Y4956594D01*
X2410295Y4956588D01*
X2243412Y4789705D01*
X2243406Y4789698D01*
X2099730Y4602455D01*
X1981719Y4398057D01*
X1981714Y4398046D01*
X1891394Y4179994D01*
X1830306Y3952011D01*
X1799501Y3718021D01*
X1799500Y3718005D01*
X300500Y3718005D01*
X300500Y17110222D01*
X2999500Y17110222D01*
X2999500Y16889779D01*
X3033985Y16672048D01*
X3102103Y16462397D01*
X3102104Y16462394D01*
X3202187Y16265975D01*
X3331752Y16087642D01*
X3331756Y16087637D01*
X3487636Y15931757D01*
X3487641Y15931753D01*
X3643192Y15818740D01*
X3665978Y15802185D01*
X3794375Y15736763D01*
X3862393Y15702105D01*
X3862396Y15702104D01*
X3967221Y15668045D01*
X4072049Y15633985D01*
X4289778Y15599500D01*
X4289779Y15599500D01*
X4510221Y15599500D01*
X4510222Y15599500D01*
X4727951Y15633985D01*
X4937606Y15702105D01*
X5134022Y15802185D01*
X5312365Y15931758D01*
X5468242Y16087635D01*
X5597815Y16265978D01*
X5697895Y16462394D01*
X5766015Y16672049D01*
X5800500Y16889778D01*
X5800500Y17110222D01*
X5766015Y17327951D01*
X5697895Y17537606D01*
X5697895Y17537607D01*
X5663237Y17605625D01*
X5597815Y17734022D01*
X5560548Y17785316D01*
X5468247Y17912359D01*
X5468243Y17912364D01*
X5312363Y18068244D01*
X5312358Y18068248D01*
X5134025Y18197813D01*
X5134024Y18197814D01*
X5134022Y18197815D01*
X5071096Y18229878D01*
X4937606Y18297896D01*
X4937603Y18297897D01*
X4727952Y18366015D01*
X4619086Y18383258D01*
X4510222Y18400500D01*
X4289778Y18400500D01*
X4217201Y18389005D01*
X4072047Y18366015D01*
X3862396Y18297897D01*
X3862393Y18297896D01*
X3665974Y18197813D01*
X3487641Y18068248D01*
X3487636Y18068244D01*
X3331756Y17912364D01*
X3331752Y17912359D01*
X3202187Y17734026D01*
X3102104Y17537607D01*
X3102103Y17537604D01*
X3033985Y17327953D01*
X2999500Y17110222D01*
X300500Y17110222D01*
X300500Y22110182D01*
X3000000Y22110182D01*
X3000000Y21889819D01*
X3034473Y21672165D01*
X3102567Y21462590D01*
X3202613Y21266240D01*
X3278688Y21161533D01*
X3278689Y21161532D01*
X3782037Y21664881D01*
X3856275Y21553777D01*
X3953777Y21456275D01*
X4064879Y21382039D01*
X3561530Y20878690D01*
X3666239Y20802614D01*
X3862589Y20702568D01*
X4072164Y20634474D01*
X4289819Y20600000D01*
X4510181Y20600000D01*
X4727835Y20634474D01*
X4937410Y20702568D01*
X5133752Y20802610D01*
X5133758Y20802614D01*
X5238467Y20878690D01*
X5238468Y20878691D01*
X4735120Y21382039D01*
X4846223Y21456275D01*
X4943725Y21553777D01*
X5017961Y21664880D01*
X5521309Y21161532D01*
X5521310Y21161533D01*
X5597386Y21266242D01*
X5597390Y21266248D01*
X5697432Y21462590D01*
X5765526Y21672165D01*
X5800000Y21889819D01*
X5800000Y22110182D01*
X5765526Y22327836D01*
X5697432Y22537411D01*
X5597386Y22733761D01*
X5521310Y22838469D01*
X5521310Y22838470D01*
X5017961Y22335121D01*
X4943725Y22446223D01*
X4846223Y22543725D01*
X4735119Y22617962D01*
X5238468Y23121311D01*
X5238467Y23121312D01*
X5133760Y23197387D01*
X4937410Y23297433D01*
X4727835Y23365527D01*
X4510181Y23400000D01*
X4289819Y23400000D01*
X4072164Y23365527D01*
X3862589Y23297433D01*
X3666236Y23197385D01*
X3561531Y23121313D01*
X3561530Y23121312D01*
X4064880Y22617963D01*
X3953777Y22543725D01*
X3856275Y22446223D01*
X3782038Y22335120D01*
X3278688Y22838470D01*
X3278687Y22838469D01*
X3202615Y22733764D01*
X3102567Y22537411D01*
X3034473Y22327836D01*
X3000000Y22110182D01*
X300500Y22110182D01*
X300500Y27110222D01*
X2999500Y27110222D01*
X2999500Y26889778D01*
X3000886Y26881028D01*
X3033985Y26672048D01*
X3102103Y26462397D01*
X3102104Y26462394D01*
X3202187Y26265975D01*
X3331752Y26087642D01*
X3331756Y26087637D01*
X3487636Y25931757D01*
X3487641Y25931753D01*
X3539047Y25894405D01*
X3665978Y25802185D01*
X3794375Y25736763D01*
X3862393Y25702105D01*
X3862396Y25702104D01*
X3948964Y25673977D01*
X4072049Y25633985D01*
X4289778Y25599500D01*
X4289779Y25599500D01*
X4510221Y25599500D01*
X4510222Y25599500D01*
X4727951Y25633985D01*
X4937606Y25702105D01*
X5134022Y25802185D01*
X5312365Y25931758D01*
X5468242Y26087635D01*
X5597815Y26265978D01*
X5697895Y26462394D01*
X5766015Y26672049D01*
X5800500Y26889778D01*
X5800500Y27110222D01*
X5766015Y27327951D01*
X5724806Y27454780D01*
X5697896Y27537604D01*
X5697895Y27537607D01*
X5659349Y27613256D01*
X5597815Y27734022D01*
X5557270Y27789828D01*
X5468247Y27912359D01*
X5468243Y27912364D01*
X5312363Y28068244D01*
X5312358Y28068248D01*
X5134025Y28197813D01*
X5134024Y28197814D01*
X5134022Y28197815D01*
X5071096Y28229878D01*
X4937606Y28297896D01*
X4937603Y28297897D01*
X4727952Y28366015D01*
X4585071Y28388645D01*
X4510222Y28400500D01*
X4289778Y28400500D01*
X4217201Y28389005D01*
X4072047Y28366015D01*
X3862396Y28297897D01*
X3862393Y28297896D01*
X3665974Y28197813D01*
X3487641Y28068248D01*
X3487636Y28068244D01*
X3331756Y27912364D01*
X3331752Y27912359D01*
X3202187Y27734026D01*
X3102104Y27537607D01*
X3102103Y27537604D01*
X3033985Y27327953D01*
X2999500Y27110222D01*
X300500Y27110222D01*
X300500Y30020857D01*
X12295500Y30020857D01*
X12295500Y29862744D01*
X12336423Y29710017D01*
X12336426Y29710010D01*
X12415475Y29573091D01*
X12415481Y29573083D01*
X12459181Y29529383D01*
X12492666Y29468060D01*
X12495500Y29441702D01*
X12495500Y12875098D01*
X12475815Y12808059D01*
X12459181Y12787417D01*
X12415481Y12743718D01*
X12415475Y12743710D01*
X12336426Y12606791D01*
X12336423Y12606784D01*
X12295500Y12454057D01*
X12295500Y12295944D01*
X12336423Y12143217D01*
X12336426Y12143210D01*
X12415475Y12006291D01*
X12415479Y12006286D01*
X12415480Y12006284D01*
X12527284Y11894480D01*
X12527286Y11894479D01*
X12527290Y11894476D01*
X12649914Y11823680D01*
X12664216Y11815423D01*
X12816943Y11774500D01*
X12816945Y11774500D01*
X12975055Y11774500D01*
X12975057Y11774500D01*
X13127784Y11815423D01*
X13264716Y11894480D01*
X13376520Y12006284D01*
X13455577Y12143216D01*
X13496500Y12295943D01*
X13496500Y12454057D01*
X13455577Y12606784D01*
X13392652Y12715775D01*
X13376524Y12743710D01*
X13376518Y12743718D01*
X13332819Y12787417D01*
X13299334Y12848740D01*
X13296500Y12875098D01*
X13296500Y29441702D01*
X13316185Y29508741D01*
X13332819Y29529383D01*
X13376520Y29573084D01*
X13455577Y29710016D01*
X13496500Y29862743D01*
X13496500Y30020857D01*
X13455577Y30173584D01*
X13423945Y30228373D01*
X13376524Y30310510D01*
X13376518Y30310518D01*
X13264717Y30422319D01*
X13264709Y30422325D01*
X13127790Y30501374D01*
X13127786Y30501376D01*
X13127784Y30501377D01*
X12975057Y30542300D01*
X12816943Y30542300D01*
X12664216Y30501377D01*
X12664209Y30501374D01*
X12527290Y30422325D01*
X12527282Y30422319D01*
X12415481Y30310518D01*
X12415475Y30310510D01*
X12336426Y30173591D01*
X12336423Y30173584D01*
X12295500Y30020857D01*
X300500Y30020857D01*
X300500Y33739057D01*
X17538500Y33739057D01*
X17538500Y33580943D01*
X17566883Y33475018D01*
X17579423Y33428217D01*
X17579426Y33428210D01*
X17658475Y33291291D01*
X17658481Y33291283D01*
X17702181Y33247583D01*
X17735666Y33186260D01*
X17738500Y33159902D01*
X17738500Y22582474D01*
X17765793Y22480611D01*
X17785648Y22446223D01*
X17818520Y22389287D01*
X17818522Y22389285D01*
X28834181Y11373626D01*
X28867666Y11312303D01*
X28870500Y11285945D01*
X28870500Y7154974D01*
X28897793Y7053111D01*
X28924156Y7007450D01*
X28950520Y6961787D01*
X28950521Y6961786D01*
X28950522Y6961785D01*
X29628179Y6284129D01*
X29628189Y6284118D01*
X29632519Y6279788D01*
X29632520Y6279787D01*
X29707087Y6205220D01*
X29798413Y6152493D01*
X29900273Y6125199D01*
X29900275Y6125199D01*
X30013323Y6125199D01*
X30013339Y6125200D01*
X36293925Y6125200D01*
X36293927Y6125200D01*
X36395788Y6152493D01*
X36487113Y6205220D01*
X41165419Y10883526D01*
X41226742Y10917011D01*
X41296434Y10912027D01*
X41352367Y10870155D01*
X41376784Y10804691D01*
X41377100Y10795845D01*
X41377100Y9034774D01*
X41404393Y8932911D01*
X41430756Y8887250D01*
X41457120Y8841587D01*
X41457122Y8841585D01*
X41927071Y8371636D01*
X41960556Y8310313D01*
X41955572Y8240621D01*
X41918054Y8188101D01*
X41880000Y8156872D01*
X41880000Y7504263D01*
X41864204Y7520059D01*
X41795795Y7559555D01*
X41719496Y7579999D01*
X41640504Y7579999D01*
X41564205Y7559555D01*
X41495796Y7520059D01*
X41480000Y7504263D01*
X41480000Y8156871D01*
X41432062Y8147335D01*
X41277372Y8083260D01*
X41277371Y8083260D01*
X41138160Y7990242D01*
X41138152Y7990236D01*
X41019764Y7871848D01*
X41019758Y7871840D01*
X40926740Y7732629D01*
X40926740Y7732628D01*
X40862665Y7577937D01*
X40862663Y7577929D01*
X40830000Y7413723D01*
X40830000Y7130000D01*
X41380001Y7130000D01*
X41380001Y6730000D01*
X40830000Y6730000D01*
X40830000Y6446278D01*
X40862663Y6282072D01*
X40862665Y6282064D01*
X40926740Y6127373D01*
X40926740Y6127372D01*
X41019758Y5988161D01*
X41019764Y5988153D01*
X41138152Y5869765D01*
X41138160Y5869759D01*
X41277371Y5776741D01*
X41432063Y5712666D01*
X41432071Y5712664D01*
X41480000Y5703130D01*
X41480000Y6355737D01*
X41495796Y6339941D01*
X41564205Y6300445D01*
X41640504Y6280001D01*
X41719496Y6280001D01*
X41795795Y6300445D01*
X41864204Y6339941D01*
X41880000Y6355737D01*
X41880000Y5703131D01*
X41927928Y5712664D01*
X41927936Y5712666D01*
X42082627Y5776741D01*
X42082628Y5776741D01*
X42221839Y5869759D01*
X42221847Y5869765D01*
X42340236Y5988154D01*
X42428950Y6120925D01*
X42482562Y6165730D01*
X42551887Y6174438D01*
X42614915Y6144284D01*
X42639439Y6114036D01*
X42669491Y6061985D01*
X42771985Y5959491D01*
X42771986Y5959490D01*
X42771988Y5959489D01*
X42897511Y5887018D01*
X42897512Y5887018D01*
X42897515Y5887016D01*
X43037525Y5849500D01*
X43037528Y5849500D01*
X43182472Y5849500D01*
X43182475Y5849500D01*
X43322485Y5887016D01*
X43448015Y5959491D01*
X43550509Y6061985D01*
X43622984Y6187515D01*
X43660500Y6327525D01*
X43660500Y6338845D01*
X43680185Y6405884D01*
X43732989Y6451639D01*
X43802147Y6461583D01*
X43865703Y6432558D01*
X43872181Y6426526D01*
X46197087Y4101620D01*
X46288412Y4048893D01*
X46390273Y4021600D01*
X46390275Y4021600D01*
X49516925Y4021600D01*
X49516927Y4021600D01*
X49618788Y4048893D01*
X49710113Y4101620D01*
X58903719Y13295229D01*
X58965042Y13328713D01*
X59034734Y13323729D01*
X59090667Y13281857D01*
X59115084Y13216393D01*
X59115400Y13207547D01*
X59115400Y10537755D01*
X59095715Y10470716D01*
X59079081Y10450074D01*
X56335526Y7706519D01*
X56274203Y7673034D01*
X56247845Y7670200D01*
X56186043Y7670200D01*
X56033316Y7629277D01*
X56033309Y7629274D01*
X55896390Y7550225D01*
X55896382Y7550219D01*
X55784581Y7438418D01*
X55784575Y7438410D01*
X55705526Y7301491D01*
X55705523Y7301484D01*
X55664600Y7148757D01*
X55664600Y6990643D01*
X55704828Y6840512D01*
X55705523Y6837917D01*
X55705526Y6837910D01*
X55784575Y6700991D01*
X55784579Y6700986D01*
X55784580Y6700984D01*
X55896384Y6589180D01*
X55896386Y6589179D01*
X55896390Y6589176D01*
X55980694Y6540504D01*
X56033316Y6510123D01*
X56186043Y6469200D01*
X56186045Y6469200D01*
X56344155Y6469200D01*
X56344157Y6469200D01*
X56496884Y6510123D01*
X56633816Y6589180D01*
X56745620Y6700984D01*
X56824677Y6837916D01*
X56865600Y6990643D01*
X56865600Y7052445D01*
X56885285Y7119484D01*
X56901919Y7140126D01*
X58133429Y8371636D01*
X59836380Y10074587D01*
X59842598Y10085357D01*
X59889107Y10165913D01*
X59916400Y10267773D01*
X59916400Y24175251D01*
X59920625Y24207344D01*
X59934130Y24257746D01*
X59962800Y24364743D01*
X59962800Y24522857D01*
X59921877Y24675584D01*
X59921873Y24675591D01*
X59842824Y24812510D01*
X59842818Y24812518D01*
X59799119Y24856217D01*
X59765634Y24917540D01*
X59762800Y24943898D01*
X59762800Y31799825D01*
X59762800Y31799827D01*
X59735507Y31901687D01*
X59735507Y31901688D01*
X59682780Y31993013D01*
X56691613Y34984180D01*
X56645950Y35010544D01*
X56600289Y35036907D01*
X56549357Y35050554D01*
X56498427Y35064200D01*
X55638927Y35064200D01*
X55533473Y35064200D01*
X55431610Y35036907D01*
X55340287Y34984180D01*
X55340284Y34984178D01*
X55106426Y34750319D01*
X55045103Y34716834D01*
X55018745Y34714000D01*
X54956943Y34714000D01*
X54804216Y34673077D01*
X54804209Y34673074D01*
X54667290Y34594025D01*
X54667282Y34594019D01*
X54555481Y34482218D01*
X54555475Y34482210D01*
X54476426Y34345291D01*
X54476423Y34345284D01*
X54435500Y34192557D01*
X54435500Y34034443D01*
X54473726Y33891784D01*
X54476423Y33881717D01*
X54476426Y33881710D01*
X54555475Y33744791D01*
X54555479Y33744786D01*
X54555480Y33744784D01*
X54667284Y33632980D01*
X54667286Y33632979D01*
X54667290Y33632976D01*
X54804209Y33553927D01*
X54804216Y33553923D01*
X54955045Y33513509D01*
X55014704Y33477145D01*
X55045233Y33414298D01*
X55042726Y33361646D01*
X55038300Y33345127D01*
X55038300Y33345125D01*
X55038300Y24177098D01*
X55018615Y24110059D01*
X55001981Y24089417D01*
X54958281Y24045718D01*
X54958275Y24045710D01*
X54879226Y23908791D01*
X54879223Y23908784D01*
X54838300Y23756057D01*
X54838300Y23597944D01*
X54879223Y23445217D01*
X54879226Y23445210D01*
X54958275Y23308291D01*
X54958279Y23308286D01*
X54958280Y23308284D01*
X55070084Y23196480D01*
X55070086Y23196479D01*
X55070090Y23196476D01*
X55110439Y23173181D01*
X55207016Y23117423D01*
X55359743Y23076500D01*
X55359745Y23076500D01*
X55517855Y23076500D01*
X55517857Y23076500D01*
X55670584Y23117423D01*
X55807516Y23196480D01*
X55919320Y23308284D01*
X55998377Y23445216D01*
X56039300Y23597943D01*
X56039300Y23756057D01*
X55998377Y23908784D01*
X55998373Y23908791D01*
X55919324Y24045710D01*
X55919318Y24045718D01*
X55875619Y24089417D01*
X55842134Y24150740D01*
X55839300Y24177098D01*
X55839300Y33075145D01*
X55858985Y33142184D01*
X55875619Y33162826D01*
X56104174Y33391381D01*
X56165497Y33424866D01*
X56191855Y33427700D01*
X56253655Y33427700D01*
X56253657Y33427700D01*
X56406384Y33468623D01*
X56543316Y33547680D01*
X56655120Y33659484D01*
X56657917Y33664330D01*
X56708479Y33712548D01*
X56777085Y33725776D01*
X56841952Y33699814D01*
X56852989Y33690018D01*
X58925481Y31617526D01*
X58958966Y31556203D01*
X58961800Y31529845D01*
X58961800Y24943898D01*
X58942115Y24876859D01*
X58925481Y24856217D01*
X58881781Y24812518D01*
X58881775Y24812510D01*
X58802726Y24675591D01*
X58802723Y24675584D01*
X58761800Y24522857D01*
X58761800Y24364743D01*
X58773911Y24319546D01*
X58802723Y24212017D01*
X58802726Y24212010D01*
X58881775Y24075091D01*
X58881779Y24075086D01*
X58881780Y24075084D01*
X58993584Y23963280D01*
X59053399Y23928746D01*
X59101615Y23878181D01*
X59115400Y23821359D01*
X59115400Y14937373D01*
X59095715Y14870334D01*
X59042911Y14824579D01*
X58973753Y14814635D01*
X58959309Y14817598D01*
X58947361Y14820800D01*
X58947357Y14820800D01*
X58789243Y14820800D01*
X58636516Y14779877D01*
X58636509Y14779874D01*
X58499590Y14700825D01*
X58499582Y14700819D01*
X58387781Y14589018D01*
X58387775Y14589010D01*
X58308726Y14452091D01*
X58308723Y14452084D01*
X58267800Y14299357D01*
X58267800Y14141243D01*
X58298175Y14027884D01*
X58308723Y13988517D01*
X58308724Y13988514D01*
X58318065Y13972335D01*
X58334538Y13904435D01*
X58311685Y13838408D01*
X58298359Y13822654D01*
X51242025Y6766319D01*
X51180702Y6732834D01*
X51154344Y6730000D01*
X50619999Y6730000D01*
X50619999Y7130000D01*
X51170000Y7130000D01*
X51170000Y7413721D01*
X51169999Y7413723D01*
X51137336Y7577929D01*
X51137334Y7577937D01*
X51073259Y7732628D01*
X51073259Y7732629D01*
X50980241Y7871840D01*
X50980235Y7871848D01*
X50861847Y7990236D01*
X50861839Y7990242D01*
X50722628Y8083260D01*
X50567937Y8147335D01*
X50520000Y8156871D01*
X50520000Y7504263D01*
X50504204Y7520059D01*
X50435795Y7559555D01*
X50359496Y7579999D01*
X50280504Y7579999D01*
X50204205Y7559555D01*
X50135796Y7520059D01*
X50120000Y7504263D01*
X50120000Y8156871D01*
X50072062Y8147335D01*
X49917372Y8083260D01*
X49917371Y8083260D01*
X49778160Y7990242D01*
X49778152Y7990236D01*
X49659764Y7871848D01*
X49659758Y7871840D01*
X49566740Y7732629D01*
X49566740Y7732628D01*
X49502665Y7577937D01*
X49502663Y7577929D01*
X49470000Y7413723D01*
X49470000Y7130000D01*
X50020001Y7130000D01*
X50020001Y6730000D01*
X49451758Y6730000D01*
X49430620Y6718458D01*
X49360928Y6723442D01*
X49316581Y6751943D01*
X49228017Y6840507D01*
X49228011Y6840512D01*
X49102488Y6912983D01*
X49102489Y6912983D01*
X49091006Y6916060D01*
X48962475Y6950500D01*
X48817525Y6950500D01*
X48688993Y6916060D01*
X48677511Y6912983D01*
X48551988Y6840512D01*
X48551982Y6840507D01*
X48449493Y6738018D01*
X48449488Y6738012D01*
X48377017Y6612489D01*
X48377016Y6612485D01*
X48339500Y6472475D01*
X48339500Y6327525D01*
X48372272Y6205221D01*
X48377017Y6187512D01*
X48449488Y6061989D01*
X48449490Y6061987D01*
X48449491Y6061985D01*
X48551985Y5959491D01*
X48551986Y5959490D01*
X48551988Y5959489D01*
X48677511Y5887018D01*
X48677512Y5887018D01*
X48677515Y5887016D01*
X48817525Y5849500D01*
X48817528Y5849500D01*
X48962472Y5849500D01*
X48962475Y5849500D01*
X49102485Y5887016D01*
X49228015Y5959491D01*
X49330509Y6061985D01*
X49360561Y6114038D01*
X49411124Y6162250D01*
X49479731Y6175474D01*
X49544596Y6149507D01*
X49571048Y6120926D01*
X49659761Y5988156D01*
X49778152Y5869765D01*
X49778160Y5869759D01*
X49917371Y5776741D01*
X49917375Y5776739D01*
X49982852Y5749618D01*
X50037256Y5705778D01*
X50059321Y5639484D01*
X50042042Y5571784D01*
X50023081Y5547376D01*
X49334626Y4858919D01*
X49273303Y4825434D01*
X49246945Y4822600D01*
X47436152Y4822600D01*
X47369113Y4842285D01*
X47323358Y4895089D01*
X47313414Y4964247D01*
X47316376Y4978691D01*
X47318400Y4986243D01*
X47318400Y5144357D01*
X47277477Y5297084D01*
X47233269Y5373655D01*
X47198424Y5434010D01*
X47198418Y5434018D01*
X47154719Y5477717D01*
X47121234Y5539040D01*
X47118400Y5565398D01*
X47118400Y9246402D01*
X47138085Y9313441D01*
X47190889Y9359196D01*
X47260047Y9369140D01*
X47323603Y9340115D01*
X47330081Y9334083D01*
X47409984Y9254180D01*
X47409986Y9254179D01*
X47409990Y9254176D01*
X47474254Y9217074D01*
X47546916Y9175123D01*
X47699643Y9134200D01*
X47699645Y9134200D01*
X47857755Y9134200D01*
X47857757Y9134200D01*
X48010484Y9175123D01*
X48147416Y9254180D01*
X48191117Y9297881D01*
X48252440Y9331366D01*
X48278798Y9334200D01*
X50680925Y9334200D01*
X50680927Y9334200D01*
X50782788Y9361493D01*
X50817245Y9381387D01*
X50879246Y9398000D01*
X50971055Y9398000D01*
X50971057Y9398000D01*
X51123784Y9438923D01*
X51260716Y9517980D01*
X51372520Y9629784D01*
X51451577Y9766716D01*
X51492500Y9919443D01*
X51492500Y10077557D01*
X51451577Y10230284D01*
X51429933Y10267773D01*
X51372524Y10367210D01*
X51372518Y10367218D01*
X51260717Y10479019D01*
X51260709Y10479025D01*
X51123790Y10558074D01*
X51123786Y10558076D01*
X51123784Y10558077D01*
X50971057Y10599000D01*
X50812943Y10599000D01*
X50660216Y10558077D01*
X50660209Y10558074D01*
X50523290Y10479025D01*
X50523282Y10479019D01*
X50411481Y10367218D01*
X50411475Y10367210D01*
X50332426Y10230291D01*
X50332423Y10230286D01*
X50332004Y10228722D01*
X50331571Y10227105D01*
X50330121Y10224727D01*
X50329314Y10222777D01*
X50329009Y10222903D01*
X50295206Y10167446D01*
X50232359Y10136917D01*
X50211797Y10135200D01*
X48278798Y10135200D01*
X48211759Y10154885D01*
X48191117Y10171519D01*
X48147417Y10215219D01*
X48147409Y10215225D01*
X48010490Y10294274D01*
X48010486Y10294276D01*
X48010484Y10294277D01*
X47857757Y10335200D01*
X47783155Y10335200D01*
X47716116Y10354885D01*
X47670361Y10407689D01*
X47660417Y10476847D01*
X47689442Y10540403D01*
X47695474Y10546881D01*
X48026074Y10877481D01*
X48087397Y10910966D01*
X48113755Y10913800D01*
X48175555Y10913800D01*
X48175557Y10913800D01*
X48328284Y10954723D01*
X48465216Y11033780D01*
X48577020Y11145584D01*
X48656077Y11282516D01*
X48697000Y11435243D01*
X48697000Y11497045D01*
X48716685Y11564084D01*
X48733319Y11584726D01*
X49291810Y12143217D01*
X50061880Y12913287D01*
X50114607Y13004612D01*
X50141900Y13106473D01*
X50141900Y13211927D01*
X50141900Y30265702D01*
X50161585Y30332741D01*
X50178219Y30353383D01*
X50191025Y30366189D01*
X50221920Y30397084D01*
X50300977Y30534016D01*
X50341900Y30686743D01*
X50341900Y30844857D01*
X50300977Y30997584D01*
X50262253Y31064657D01*
X50221924Y31134510D01*
X50221918Y31134518D01*
X50110117Y31246319D01*
X50110109Y31246325D01*
X49973190Y31325374D01*
X49973186Y31325376D01*
X49973184Y31325377D01*
X49820457Y31366300D01*
X49662343Y31366300D01*
X49509616Y31325377D01*
X49509615Y31325377D01*
X49439037Y31284629D01*
X49371136Y31268158D01*
X49305110Y31291010D01*
X49289357Y31304336D01*
X48831015Y31762678D01*
X48831013Y31762680D01*
X48766677Y31799825D01*
X48739689Y31815407D01*
X48688757Y31829054D01*
X48637827Y31842700D01*
X44486127Y31842700D01*
X44380673Y31842700D01*
X44278810Y31815407D01*
X44187487Y31762680D01*
X44187484Y31762678D01*
X44047226Y31622419D01*
X43985903Y31588934D01*
X43959545Y31586100D01*
X43897743Y31586100D01*
X43745016Y31545177D01*
X43745009Y31545174D01*
X43608090Y31466125D01*
X43608082Y31466119D01*
X43496281Y31354318D01*
X43496275Y31354310D01*
X43417226Y31217391D01*
X43417223Y31217384D01*
X43376300Y31064657D01*
X43376300Y30908300D01*
X43356615Y30841261D01*
X43303811Y30795506D01*
X43252300Y30784300D01*
X41409673Y30784300D01*
X41307810Y30757007D01*
X41216487Y30704280D01*
X41216484Y30704278D01*
X39018852Y28506646D01*
X38957529Y28473161D01*
X38887837Y28478145D01*
X38831904Y28520017D01*
X38807487Y28585481D01*
X38811396Y28626419D01*
X38817700Y28649943D01*
X38817700Y28808057D01*
X38776777Y28960784D01*
X38763305Y28984119D01*
X38697724Y29097710D01*
X38697718Y29097718D01*
X38654019Y29141417D01*
X38620534Y29202740D01*
X38617700Y29229098D01*
X38617700Y33136245D01*
X38637385Y33203284D01*
X38654022Y33223929D01*
X38669778Y33239684D01*
X38731102Y33273167D01*
X38757456Y33276000D01*
X38819255Y33276000D01*
X38819257Y33276000D01*
X38971984Y33316923D01*
X39108916Y33395980D01*
X39220720Y33507784D01*
X39299777Y33644716D01*
X39340700Y33797443D01*
X39340700Y33955557D01*
X39299777Y34108284D01*
X39281163Y34140525D01*
X39220724Y34245210D01*
X39220718Y34245218D01*
X39177019Y34288917D01*
X39143534Y34350240D01*
X39140700Y34376598D01*
X39140700Y35059887D01*
X39160385Y35126926D01*
X39213189Y35172681D01*
X39232598Y35179659D01*
X39296284Y35196723D01*
X39433216Y35275780D01*
X39545020Y35387584D01*
X39624077Y35524516D01*
X39665000Y35677243D01*
X39665000Y35835357D01*
X39624077Y35988084D01*
X39624073Y35988091D01*
X39545024Y36125010D01*
X39545018Y36125018D01*
X39433217Y36236819D01*
X39433209Y36236825D01*
X39296290Y36315874D01*
X39296286Y36315876D01*
X39296284Y36315877D01*
X39143557Y36356800D01*
X38985443Y36356800D01*
X38832716Y36315877D01*
X38832709Y36315874D01*
X38695790Y36236825D01*
X38695782Y36236819D01*
X38583981Y36125018D01*
X38583975Y36125010D01*
X38504926Y35988091D01*
X38504923Y35988084D01*
X38464000Y35835357D01*
X38464000Y35773555D01*
X38444315Y35706516D01*
X38427681Y35685874D01*
X38419722Y35677916D01*
X38419718Y35677910D01*
X38366992Y35586588D01*
X38366993Y35586587D01*
X38339700Y35484727D01*
X38339700Y34376598D01*
X38320015Y34309559D01*
X38303381Y34288917D01*
X38259681Y34245218D01*
X38259675Y34245210D01*
X38180626Y34108291D01*
X38180623Y34108284D01*
X38139700Y33955557D01*
X38139700Y33893755D01*
X38120015Y33826716D01*
X38103381Y33806074D01*
X37896722Y33599416D01*
X37896718Y33599410D01*
X37843992Y33508088D01*
X37843993Y33508087D01*
X37816700Y33406227D01*
X37816700Y29267355D01*
X37797015Y29200316D01*
X37744211Y29154561D01*
X37675053Y29144617D01*
X37611497Y29173642D01*
X37605019Y29179674D01*
X33748819Y33035874D01*
X33715334Y33097197D01*
X33712500Y33123555D01*
X33712500Y33185355D01*
X33712500Y33185357D01*
X33671577Y33338084D01*
X33640806Y33391381D01*
X33592524Y33475010D01*
X33592518Y33475018D01*
X33480717Y33586819D01*
X33480709Y33586825D01*
X33343790Y33665874D01*
X33343786Y33665876D01*
X33343784Y33665877D01*
X33191057Y33706800D01*
X33032943Y33706800D01*
X32880216Y33665877D01*
X32880209Y33665874D01*
X32743290Y33586825D01*
X32743282Y33586819D01*
X32699583Y33543119D01*
X32638260Y33509634D01*
X32611902Y33506800D01*
X25824754Y33506800D01*
X25757715Y33526485D01*
X25737073Y33543119D01*
X22036819Y37243374D01*
X22003334Y37304697D01*
X22000500Y37331055D01*
X22000500Y37392855D01*
X22000500Y37392857D01*
X21959577Y37545584D01*
X21959573Y37545591D01*
X21880524Y37682510D01*
X21880518Y37682518D01*
X21768717Y37794319D01*
X21768709Y37794325D01*
X21631790Y37873374D01*
X21631786Y37873376D01*
X21631784Y37873377D01*
X21479057Y37914300D01*
X21320943Y37914300D01*
X21168216Y37873377D01*
X21168209Y37873374D01*
X21031290Y37794325D01*
X21031282Y37794319D01*
X20919481Y37682518D01*
X20919475Y37682510D01*
X20840426Y37545591D01*
X20840423Y37545584D01*
X20799500Y37392857D01*
X20799500Y37234744D01*
X20840423Y37082017D01*
X20840426Y37082010D01*
X20919475Y36945091D01*
X20919479Y36945086D01*
X20919480Y36945084D01*
X21031284Y36833280D01*
X21031286Y36833279D01*
X21031290Y36833276D01*
X21168209Y36754227D01*
X21168216Y36754223D01*
X21320943Y36713300D01*
X21382745Y36713300D01*
X21449784Y36693615D01*
X21470426Y36676981D01*
X25282679Y32864729D01*
X25282689Y32864718D01*
X25361588Y32785819D01*
X25396236Y32765816D01*
X25430885Y32745811D01*
X25430887Y32745810D01*
X25452911Y32733094D01*
X25452912Y32733094D01*
X25452913Y32733093D01*
X25554773Y32705799D01*
X25554775Y32705799D01*
X25667823Y32705799D01*
X25667839Y32705800D01*
X32611902Y32705800D01*
X32678941Y32686115D01*
X32699583Y32669481D01*
X32743284Y32625780D01*
X32743286Y32625779D01*
X32743290Y32625776D01*
X32880209Y32546727D01*
X32880216Y32546723D01*
X33032943Y32505800D01*
X33094745Y32505800D01*
X33161784Y32486115D01*
X33182426Y32469481D01*
X37243387Y28408520D01*
X37334712Y28355793D01*
X37436573Y28328500D01*
X37542027Y28328500D01*
X37717102Y28328500D01*
X37784141Y28308815D01*
X37804783Y28292181D01*
X37848484Y28248480D01*
X37848486Y28248479D01*
X37848490Y28248476D01*
X37985409Y28169427D01*
X37985416Y28169423D01*
X38138143Y28128500D01*
X38138145Y28128500D01*
X38296255Y28128500D01*
X38296257Y28128500D01*
X38319779Y28134803D01*
X38389627Y28133142D01*
X38447490Y28093980D01*
X38474996Y28029752D01*
X38463411Y27960850D01*
X38439554Y27927348D01*
X34559026Y24046819D01*
X34497703Y24013334D01*
X34471345Y24010500D01*
X28282351Y24010500D01*
X28215312Y24030185D01*
X28169557Y24082989D01*
X28159613Y24152147D01*
X28162573Y24166583D01*
X28187000Y24257743D01*
X28187000Y24415857D01*
X28146077Y24568584D01*
X28146073Y24568591D01*
X28067024Y24705510D01*
X28067018Y24705518D01*
X27955217Y24817319D01*
X27955209Y24817325D01*
X27818290Y24896374D01*
X27818286Y24896376D01*
X27818284Y24896377D01*
X27665557Y24937300D01*
X27665556Y24937300D01*
X27603754Y24937300D01*
X27536715Y24956985D01*
X27516073Y24973619D01*
X24837915Y27651778D01*
X24837914Y27651779D01*
X24837913Y27651780D01*
X24765000Y27693877D01*
X24746589Y27704507D01*
X24685866Y27720777D01*
X24644727Y27731800D01*
X24644726Y27731800D01*
X22058098Y27731800D01*
X21991059Y27751485D01*
X21970417Y27768119D01*
X21926717Y27811819D01*
X21926709Y27811825D01*
X21789790Y27890874D01*
X21789786Y27890876D01*
X21789784Y27890877D01*
X21637057Y27931800D01*
X21478943Y27931800D01*
X21326216Y27890877D01*
X21326209Y27890874D01*
X21189290Y27811825D01*
X21189282Y27811819D01*
X21077481Y27700018D01*
X21077475Y27700010D01*
X20998426Y27563091D01*
X20998423Y27563084D01*
X20957500Y27410357D01*
X20957500Y27252243D01*
X20995555Y27110222D01*
X20998423Y27099517D01*
X20998426Y27099510D01*
X21077475Y26962591D01*
X21077479Y26962586D01*
X21077480Y26962584D01*
X21189284Y26850780D01*
X21189286Y26850779D01*
X21189290Y26850776D01*
X21326209Y26771727D01*
X21326216Y26771723D01*
X21478943Y26730800D01*
X21478945Y26730800D01*
X21637055Y26730800D01*
X21637057Y26730800D01*
X21789784Y26771723D01*
X21926716Y26850780D01*
X21970417Y26894481D01*
X22031740Y26927966D01*
X22058098Y26930800D01*
X24374745Y26930800D01*
X24441784Y26911115D01*
X24462426Y26894481D01*
X26949681Y24407227D01*
X26983166Y24345904D01*
X26986000Y24319546D01*
X26986000Y24257743D01*
X27010423Y24166592D01*
X27008761Y24096744D01*
X26969599Y24038881D01*
X26905370Y24011377D01*
X26890649Y24010500D01*
X25346939Y24010500D01*
X25346923Y24010501D01*
X25339327Y24010501D01*
X25233873Y24010501D01*
X25165966Y23992305D01*
X25132012Y23983207D01*
X25040684Y23930478D01*
X21721226Y20611019D01*
X21659903Y20577534D01*
X21633545Y20574700D01*
X21571743Y20574700D01*
X21419016Y20533777D01*
X21419009Y20533774D01*
X21282090Y20454725D01*
X21282086Y20454722D01*
X21171659Y20344295D01*
X21110336Y20310811D01*
X21040644Y20315795D01*
X20996297Y20344296D01*
X18575819Y22764774D01*
X18542334Y22826097D01*
X18539500Y22852455D01*
X18539500Y33159902D01*
X18559185Y33226941D01*
X18575819Y33247583D01*
X18619520Y33291284D01*
X18698577Y33428216D01*
X18739500Y33580943D01*
X18739500Y33739057D01*
X18698577Y33891784D01*
X18661758Y33955557D01*
X18619524Y34028710D01*
X18619518Y34028718D01*
X18507717Y34140519D01*
X18507709Y34140525D01*
X18370790Y34219574D01*
X18370786Y34219576D01*
X18370784Y34219577D01*
X18218057Y34260500D01*
X18059943Y34260500D01*
X17907216Y34219577D01*
X17907209Y34219574D01*
X17770290Y34140525D01*
X17770282Y34140519D01*
X17658481Y34028718D01*
X17658475Y34028710D01*
X17579426Y33891791D01*
X17579423Y33891784D01*
X17538500Y33739057D01*
X300500Y33739057D01*
X300500Y42518005D01*
X1799500Y42518005D01*
X1799500Y42281996D01*
X1799501Y42281980D01*
X1830306Y42047990D01*
X1891394Y41820007D01*
X1981714Y41601955D01*
X1981719Y41601944D01*
X2052677Y41479043D01*
X2099727Y41397550D01*
X2099729Y41397547D01*
X2099730Y41397546D01*
X2243406Y41210303D01*
X2243412Y41210296D01*
X2410295Y41043413D01*
X2410301Y41043408D01*
X2597550Y40899727D01*
X2728918Y40823882D01*
X2801943Y40781720D01*
X2801948Y40781718D01*
X2801951Y40781716D01*
X3020007Y40691394D01*
X3247986Y40630307D01*
X3481989Y40599500D01*
X3481996Y40599500D01*
X3718004Y40599500D01*
X3718011Y40599500D01*
X3952014Y40630307D01*
X4179993Y40691394D01*
X4398049Y40781716D01*
X4602450Y40899727D01*
X4789699Y41043408D01*
X4956592Y41210301D01*
X5100273Y41397550D01*
X5218284Y41601951D01*
X5308606Y41820007D01*
X5369693Y42047986D01*
X5400500Y42281989D01*
X5400500Y42518011D01*
X5369693Y42752014D01*
X5308606Y42979993D01*
X5218284Y43198049D01*
X5218282Y43198052D01*
X5218280Y43198057D01*
X5176118Y43271082D01*
X5100273Y43402450D01*
X4956592Y43589699D01*
X4956587Y43589705D01*
X4789704Y43756588D01*
X4789697Y43756594D01*
X4602454Y43900270D01*
X4602453Y43900271D01*
X4602450Y43900273D01*
X4520957Y43947323D01*
X4398056Y44018281D01*
X4398045Y44018286D01*
X4179993Y44108606D01*
X3952010Y44169694D01*
X3718020Y44200499D01*
X3718017Y44200500D01*
X3718011Y44200500D01*
X3481989Y44200500D01*
X3481983Y44200500D01*
X3481979Y44200499D01*
X3247989Y44169694D01*
X3020006Y44108606D01*
X2801954Y44018286D01*
X2801943Y44018281D01*
X2597545Y43900270D01*
X2410302Y43756594D01*
X2410295Y43756588D01*
X2243412Y43589705D01*
X2243406Y43589698D01*
X2099730Y43402455D01*
X1981719Y43198057D01*
X1981714Y43198046D01*
X1891394Y42979994D01*
X1830306Y42752011D01*
X1799501Y42518021D01*
X1799500Y42518005D01*
X300500Y42518005D01*
X300500Y43995573D01*
X300816Y44004419D01*
X312636Y44169694D01*
X317165Y44233027D01*
X319681Y44250524D01*
X367457Y44470148D01*
X372434Y44487099D01*
X450986Y44697705D01*
X458325Y44713774D01*
X566043Y44911045D01*
X575599Y44925914D01*
X710293Y45105844D01*
X721867Y45119201D01*
X880799Y45278133D01*
X894156Y45289707D01*
X1074086Y45424401D01*
X1088955Y45433957D01*
X1286226Y45541675D01*
X1302295Y45549014D01*
X1512901Y45627566D01*
X1529852Y45632543D01*
X1749476Y45680319D01*
X1766973Y45682835D01*
X1995582Y45699184D01*
X2004428Y45699500D01*
X2047594Y45699500D01*
X36876000Y45699500D01*
X36943039Y45679815D01*
G37*
%TD.AperFunction*%
%TD*%
M02*
