M48
; DRILL file KiCad 10.0.6 date 2026-09-26T20:39:47
; FORMAT={-:-/ absolute / metric / decimal}
; #@! TF.CreationDate,2026-09-26T20:39:47-04:00
; #@! TF.GenerationSoftware,Kicad,Pcbnew,10.0.6
; #@! TF.FileFunction,Plated,1,2,PTH
FMAT,2
METRIC
; #@! TA.AperFunction,Plated,PTH,ViaDrill
T1C0.300
; #@! TA.AperFunction,Plated,PTH,ComponentDrill
T2C0.300
; #@! TA.AperFunction,Plated,PTH,ComponentDrill
T3C0.600
; #@! TA.AperFunction,Plated,PTH,ComponentDrill
T4C1.400
%
G90
G05
T1
X1.6Y44.4
X1.6Y38.0
X1.6Y34.8
X1.6Y31.6
X1.6Y28.4
X1.6Y25.2
X1.6Y22.0
X1.6Y18.8
X1.6Y15.6
X1.6Y12.4
X1.6Y9.2
X1.6Y6.0
X4.8Y38.0
X4.8Y34.8
X4.8Y31.6
X4.8Y12.4
X4.8Y9.2
X4.8Y6.0
X8.0Y44.4
X8.0Y41.2
X8.0Y38.0
X8.0Y34.8
X8.0Y31.6
X8.0Y28.4
X8.0Y25.2
X8.0Y22.0
X8.0Y18.8
X8.0Y12.4
X8.0Y9.2
X8.0Y6.0
X8.0Y2.8
X11.2Y44.4
X11.2Y41.2
X11.2Y38.0
X11.2Y25.2
X11.2Y22.0
X11.2Y18.8
X11.2Y15.6
X11.2Y6.0
X11.2Y2.8
X11.5Y43.095
X12.896Y29.942
X12.896Y12.375
X14.045Y42.8
X14.045Y40.6
X14.045Y38.4
X14.4Y44.4
X14.4Y28.4
X14.4Y25.2
X14.4Y22.0
X14.4Y18.8
X14.4Y12.4
X14.4Y9.2
X14.4Y6.0
X14.4Y2.8
X17.38Y14.0
X17.6Y44.4
X17.6Y34.8
X17.6Y9.2
X17.6Y6.0
X17.6Y2.8
X18.139Y33.66
X18.159Y18.654
X18.2Y20.83
X19.382Y14.35
X20.8Y44.4
X20.8Y31.6
X20.8Y28.4
X20.8Y25.2
X20.8Y22.0
X20.8Y9.2
X20.8Y6.0
X20.8Y2.8
X21.4Y37.314
X21.558Y27.331
X21.651Y19.974
X22.317Y21.7
X22.317Y19.5
X22.317Y17.3
X22.317Y15.1
X22.8Y3.0
X22.945Y24.0
X23.022Y25.35
X24.0Y44.4
X24.0Y12.4
X24.0Y9.2
X27.2Y44.4
X27.2Y41.2
X27.2Y38.0
X27.3Y3.0
X27.586Y24.337
X27.7Y36.703
X28.7Y22.997
X30.224Y7.147
X30.4Y44.4
X30.4Y41.2
X30.4Y38.0
X30.4Y31.6
X30.4Y22.0
X31.8Y3.0
X33.112Y33.106
X33.2Y29.303
X33.6Y44.4
X33.6Y41.2
X33.6Y34.8
X33.6Y25.2
X33.6Y18.8
X33.6Y12.4
X33.6Y9.2
X34.6Y29.25
X35.9Y35.445
X36.0Y7.147
X36.202Y20.535
X36.3Y33.65
X36.7Y37.0
X36.8Y22.0
X36.8Y12.4
X36.8Y2.8
X38.1Y18.0
X38.217Y28.729
X38.74Y33.877
X38.775Y38.118
X39.064Y35.756
X39.248Y29.083
X39.278Y39.257
X39.278Y30.143
X40.0Y2.8
X40.537Y38.706
X40.916Y39.71
X41.317Y14.569
X41.437Y8.494
X41.765Y38.924
X41.778Y27.161
X42.4Y11.503
X42.548Y38.224
X42.697Y27.134
X42.787Y39.202
X43.002Y28.838
X43.2Y34.8
X43.2Y2.8
X43.526Y26.258
X43.952Y10.006
X43.977Y30.986
X44.198Y20.535
X44.29Y28.347
X44.399Y39.469
X44.412Y27.522
X44.801Y38.372
X44.808Y22.517
X44.932Y30.833
X45.108Y21.667
X45.999Y39.731
X46.0Y38.65
X46.0Y9.164
X46.4Y34.8
X46.4Y2.8
X46.555Y20.407
X46.718Y5.065
X47.292Y38.657
X47.402Y20.535
X47.552Y27.331
X47.779Y9.735
X48.096Y11.514
X48.158Y12.894
X48.339Y30.83
X48.656Y38.768
X49.222Y39.881
X49.6Y38.0
X49.6Y34.8
X49.6Y11.503
X49.741Y30.766
X50.117Y38.903
X50.563Y8.494
X50.785Y39.679
X50.892Y9.998
X52.752Y29.083
X52.8Y6.0
X52.8Y2.8
X52.877Y39.565
X53.402Y21.765
X53.6Y17.255
X55.036Y34.114
X55.439Y23.677
X55.6Y17.35
X56.0Y44.4
X56.0Y41.2
X56.0Y38.0
X56.0Y12.4
X56.0Y2.8
X56.127Y24.372
X56.175Y34.028
X56.265Y7.07
X58.868Y14.22
X59.2Y44.4
X59.2Y41.2
X59.2Y38.0
X59.2Y34.8
X59.2Y6.0
X59.2Y2.8
X59.362Y24.444
X62.4Y44.4
X62.4Y41.2
X62.4Y38.0
X62.4Y34.8
X62.4Y31.6
X62.4Y28.4
X62.4Y25.2
X62.4Y22.0
X62.4Y18.8
X62.4Y15.6
X62.4Y12.4
X62.4Y9.2
X62.4Y6.0
X62.4Y2.8
X65.444Y17.425
X65.6Y44.4
X65.6Y41.2
X65.6Y38.0
X65.6Y34.8
X65.6Y31.6
X65.6Y28.4
X65.6Y25.2
X65.6Y12.4
X65.6Y9.2
X65.6Y6.0
X65.6Y2.8
X65.861Y13.562
X67.106Y16.733
X67.106Y14.667
X67.691Y13.791
X68.72Y13.575
X68.8Y38.0
X68.8Y34.8
X68.8Y31.6
X68.8Y28.4
X68.8Y25.2
X68.8Y22.0
X68.8Y9.2
X69.6Y18.0
X69.6Y13.0
X69.758Y19.06
X70.48Y13.575
X70.633Y18.194
X70.78Y15.549
T2
X23.45Y29.9
X23.45Y28.9
T4
X4.4Y27.0
X4.4Y22.0
X4.4Y17.0
T3
X41.68Y7.28G85X41.68Y6.58
G05
X41.68Y2.92G85X41.68Y2.52
G05
X50.32Y7.28G85X50.32Y6.58
G05
X50.32Y2.92G85X50.32Y2.52
G05
M30
