%TF.GenerationSoftware,KiCad,Pcbnew,10.0.6*%
%TF.CreationDate,2026-09-26T20:39:47-04:00*%
%TF.ProjectId,gpsspeed,67707373-7065-4656-942e-6b696361645f,rev?*%
%TF.SameCoordinates,Original*%
%TF.FileFunction,Soldermask,Top*%
%TF.FilePolarity,Negative*%
%FSLAX46Y46*%
G04 Gerber Fmt 4.6, Leading zero omitted, Abs format (unit mm)*
G04 Created by KiCad (PCBNEW 10.0.6) date 2026-09-26 20:39:47*
%MOMM*%
%LPD*%
G01*
G04 APERTURE LIST*
G04 Aperture macros list*
%AMFreePoly0*
4,1,23,0.500000,-0.750000,0.000000,-0.750000,0.000000,-0.745722,-0.065263,-0.745722,-0.191342,-0.711940,-0.304381,-0.646677,-0.396677,-0.554381,-0.461940,-0.441342,-0.495722,-0.315263,-0.495722,-0.250000,-0.500000,-0.250000,-0.500000,0.250000,-0.495722,0.250000,-0.495722,0.315263,-0.461940,0.441342,-0.396677,0.554381,-0.304381,0.646677,-0.191342,0.711940,-0.065263,0.745722,0.000000,0.745722,
0.000000,0.750000,0.500000,0.750000,0.500000,-0.750000,0.500000,-0.750000,$1*%
%AMFreePoly1*
4,1,23,0.000000,0.745722,0.065263,0.745722,0.191342,0.711940,0.304381,0.646677,0.396677,0.554381,0.461940,0.441342,0.495722,0.315263,0.495722,0.250000,0.500000,0.250000,0.500000,-0.250000,0.495722,-0.250000,0.495722,-0.315263,0.461940,-0.441342,0.396677,-0.554381,0.304381,-0.646677,0.191342,-0.711940,0.065263,-0.745722,0.000000,-0.745722,0.000000,-0.750000,-0.500000,-0.750000,
-0.500000,0.750000,0.000000,0.750000,0.000000,0.745722,0.000000,0.745722,$1*%
%AMFreePoly2*
4,1,14,0.760322,0.760195,0.774967,0.724840,0.774967,-0.725145,0.760322,-0.760500,0.724967,-0.775145,-0.725018,-0.775145,-0.760373,-0.760500,-0.775018,-0.725145,-0.775018,0.124841,-0.760373,0.160196,-0.160374,0.760195,-0.125019,0.774840,0.724967,0.774840,0.760322,0.760195,0.760322,0.760195,$1*%
G04 Aperture macros list end*
%ADD10R,0.800000X0.800000*%
%ADD11C,3.200000*%
%ADD12R,1.410000X1.350000*%
%ADD13R,0.806000X0.864000*%
%ADD14R,1.485000X1.728000*%
%ADD15O,0.574000X2.038000*%
%ADD16R,3.100000X2.410000*%
%ADD17R,1.070000X0.600000*%
%ADD18C,0.700000*%
%ADD19O,1.100000X1.900000*%
%ADD20O,1.200000X1.600000*%
%ADD21R,0.550000X1.100000*%
%ADD22R,0.300000X1.100000*%
%ADD23R,0.864000X0.806000*%
%ADD24R,0.532000X1.072000*%
%ADD25R,0.864000X0.800000*%
%ADD26C,1.500000*%
%ADD27R,0.900000X0.800000*%
%ADD28R,1.800000X1.620000*%
%ADD29R,1.350000X1.410000*%
%ADD30R,1.000000X0.750000*%
%ADD31R,3.499000X1.407000*%
%ADD32R,0.800000X0.864000*%
%ADD33R,2.124000X4.220000*%
%ADD34FreePoly0,0.000000*%
%ADD35FreePoly1,0.000000*%
%ADD36O,1.773000X0.700000*%
%ADD37R,3.820000X3.030000*%
%ADD38C,2.200000*%
%ADD39R,1.200000X1.200000*%
%ADD40R,0.800000X0.400000*%
%ADD41R,0.400000X0.800000*%
%ADD42FreePoly2,0.000000*%
%ADD43R,1.450000X1.450000*%
%ADD44R,0.700000X0.700000*%
%ADD45R,1.050000X1.000000*%
%ADD46R,2.200000X1.050000*%
%ADD47R,1.200000X3.500000*%
G04 APERTURE END LIST*
%TO.C,JP1*%
G36*
X10250000Y10950000D02*
G01*
X10550000Y10950000D01*
X10550000Y9450000D01*
X10250000Y9450000D01*
X10250000Y10950000D01*
G37*
%TD*%
D10*
%TO.C,LED3*%
X32750000Y3000000D03*
X34250000Y3000000D03*
%TD*%
D11*
%TO.C,H1*%
X3600000Y42400000D03*
%TD*%
D12*
%TO.C,C3*%
X26200000Y24000000D03*
X24200000Y24000000D03*
%TD*%
D13*
%TO.C,R10*%
X28250000Y5200000D03*
X29750000Y5200000D03*
%TD*%
D14*
%TO.C,C14*%
X26790000Y17300000D03*
X23610000Y17300000D03*
%TD*%
D15*
%TO.C,U1*%
X23900000Y26630000D03*
X25170000Y26630000D03*
X26430000Y26630000D03*
X27700000Y26630000D03*
X27700000Y32170000D03*
X26430000Y32170000D03*
X25170000Y32170000D03*
X23900000Y32170000D03*
D16*
X25800000Y29400000D03*
%TD*%
D17*
%TO.C,Q1*%
X17240000Y16050000D03*
X17240000Y17950000D03*
X14760000Y17000000D03*
%TD*%
D13*
%TO.C,R13*%
X20350000Y16000000D03*
X18850000Y16000000D03*
%TD*%
D18*
%TO.C,J3*%
X43110000Y6400000D03*
X48890000Y6400000D03*
D19*
X41680000Y6930000D03*
D20*
X41680000Y2720000D03*
D19*
X50320000Y6930000D03*
D20*
X50320000Y2720000D03*
D21*
X42800000Y7480000D03*
X43600000Y7480000D03*
D22*
X44750000Y7480000D03*
X45750000Y7480000D03*
X46250000Y7480000D03*
X47250000Y7480000D03*
D21*
X49200000Y7480000D03*
X48400000Y7480000D03*
D22*
X47750000Y7480000D03*
X46750000Y7480000D03*
X45250000Y7480000D03*
X44250000Y7480000D03*
%TD*%
D13*
%TO.C,R9*%
X23750000Y5200000D03*
X25250000Y5200000D03*
%TD*%
D23*
%TO.C,R18*%
X27700000Y34250000D03*
X27700000Y35750000D03*
%TD*%
D11*
%TO.C,H3*%
X3600000Y3600000D03*
%TD*%
D23*
%TO.C,R14*%
X18400000Y12850000D03*
X18400000Y14350000D03*
%TD*%
D14*
%TO.C,C2*%
X26790000Y19500000D03*
X23610000Y19500000D03*
%TD*%
D12*
%TO.C,C15*%
X17300000Y38400000D03*
X15300000Y38400000D03*
%TD*%
D13*
%TO.C,R12*%
X53850000Y19800000D03*
X55350000Y19800000D03*
%TD*%
D24*
%TO.C,U4*%
X45050000Y10250000D03*
X46000000Y10250000D03*
X46950000Y10250000D03*
X46950000Y12550000D03*
X46000000Y12550000D03*
X45050000Y12550000D03*
%TD*%
D25*
%TO.C,L2*%
X68400000Y18300000D03*
X68400000Y16900000D03*
%TD*%
D12*
%TO.C,C6*%
X17300000Y40600000D03*
X15300000Y40600000D03*
%TD*%
D26*
%TO.C,TP3*%
X21800000Y13400000D03*
%TD*%
D27*
%TO.C,C10*%
X36300000Y31300000D03*
X36300000Y32700000D03*
%TD*%
%TO.C,C9*%
X37700000Y38400000D03*
X37700000Y37000000D03*
%TD*%
%TO.C,C12*%
X55600000Y15000000D03*
X55600000Y16400000D03*
%TD*%
D23*
%TO.C,R6*%
X37700000Y34050000D03*
X37700000Y35550000D03*
%TD*%
%TO.C,R7*%
X49200000Y26250000D03*
X49200000Y27750000D03*
%TD*%
D28*
%TO.C,D5*%
X9250000Y16990000D03*
X13550000Y17010000D03*
%TD*%
D29*
%TO.C,C8*%
X35900000Y38700000D03*
X35900000Y36700000D03*
%TD*%
D14*
%TO.C,C1*%
X26790000Y21700000D03*
X23610000Y21700000D03*
%TD*%
D26*
%TO.C,TP6*%
X48200000Y18000000D03*
%TD*%
D30*
%TO.C,SW2*%
X48400000Y24850000D03*
X54400000Y24850000D03*
X48400000Y21150000D03*
X54400000Y21150000D03*
%TD*%
D13*
%TO.C,R11*%
X32750000Y5200000D03*
X34250000Y5200000D03*
%TD*%
D26*
%TO.C,TP4*%
X54400000Y9000000D03*
%TD*%
D27*
%TO.C,C4*%
X25170000Y34300000D03*
X25170000Y35700000D03*
%TD*%
D10*
%TO.C,LED1*%
X25250000Y3000000D03*
X23750000Y3000000D03*
%TD*%
D29*
%TO.C,C11*%
X53600000Y14000000D03*
X53600000Y16000000D03*
%TD*%
D23*
%TO.C,R3*%
X42400000Y9050000D03*
X42400000Y10550000D03*
%TD*%
D11*
%TO.C,H2*%
X68400000Y42400000D03*
%TD*%
D31*
%TO.C,F1*%
X11300000Y28150000D03*
X11300000Y31850000D03*
%TD*%
D32*
%TO.C,FB1*%
X52500000Y12400000D03*
X53900000Y12400000D03*
%TD*%
D27*
%TO.C,C7*%
X34600000Y26900000D03*
X34600000Y28300000D03*
%TD*%
D23*
%TO.C,R16*%
X28700000Y25450000D03*
X28700000Y23950000D03*
%TD*%
D10*
%TO.C,LED2*%
X28250000Y3000000D03*
X29750000Y3000000D03*
%TD*%
D33*
%TO.C,L1*%
X23400000Y39400000D03*
X19400000Y39400000D03*
%TD*%
D34*
%TO.C,JP1*%
X9750000Y10200000D03*
D35*
X11050000Y10200000D03*
%TD*%
D36*
%TO.C,U3*%
X57190000Y23400000D03*
X57190000Y22300000D03*
X57190000Y21200000D03*
X57190000Y20100000D03*
X57190000Y19000000D03*
X57190000Y17900000D03*
X57190000Y16800000D03*
X57190000Y15700000D03*
X57190000Y14600000D03*
X66810000Y14600000D03*
X66810000Y15700000D03*
X66810000Y16800000D03*
X66810000Y17900000D03*
X66810000Y19000000D03*
X66810000Y20100000D03*
X66810000Y21200000D03*
X66810000Y22300000D03*
X66810000Y23400000D03*
%TD*%
D11*
%TO.C,H4*%
X68400000Y3600000D03*
%TD*%
D23*
%TO.C,R15*%
X10200000Y14150000D03*
X10200000Y12650000D03*
%TD*%
D26*
%TO.C,TP2*%
X36800000Y15000000D03*
%TD*%
D14*
%TO.C,C17*%
X26790000Y15100000D03*
X23610000Y15100000D03*
%TD*%
D28*
%TO.C,D2*%
X15750000Y35390000D03*
X20050000Y35410000D03*
%TD*%
%TO.C,D1*%
X14150000Y31840000D03*
X18450000Y31860000D03*
%TD*%
D26*
%TO.C,TP1*%
X36800000Y18000000D03*
%TD*%
D23*
%TO.C,R4*%
X49600000Y9050000D03*
X49600000Y10550000D03*
%TD*%
D13*
%TO.C,R1*%
X30450000Y29000000D03*
X31950000Y29000000D03*
%TD*%
D23*
%TO.C,R5*%
X37700000Y31250000D03*
X37700000Y32750000D03*
%TD*%
D37*
%TO.C,D3*%
X11500000Y34170000D03*
X11500000Y41030000D03*
%TD*%
D38*
%TO.C,J1*%
X4400000Y27000000D03*
X4400000Y22000000D03*
X4400000Y17000000D03*
%TD*%
D39*
%TO.C,D4*%
X12970000Y14000000D03*
X16230000Y14000000D03*
%TD*%
D23*
%TO.C,R17*%
X29300000Y35750000D03*
X29300000Y34250000D03*
%TD*%
D26*
%TO.C,TP5*%
X45200000Y18000000D03*
%TD*%
D40*
%TO.C,U2*%
X40100000Y38700000D03*
X40100000Y37900000D03*
X40100000Y37100000D03*
X40100000Y36300000D03*
X40100000Y35500000D03*
X40100000Y34700000D03*
X40100000Y33900000D03*
X40100000Y33100000D03*
X40100000Y32300000D03*
X40100000Y31500000D03*
X40100000Y30700000D03*
D41*
X41200000Y29800000D03*
X42000000Y29800000D03*
X42800000Y29800000D03*
X43600000Y29800000D03*
X44400000Y29800000D03*
X45200000Y29800000D03*
X46000000Y29800000D03*
X46800000Y29800000D03*
X47600000Y29800000D03*
X48400000Y29800000D03*
X49200000Y29800000D03*
X50000000Y29800000D03*
X50800000Y29800000D03*
D40*
X51900000Y30700000D03*
X51900000Y31500000D03*
X51900000Y32300000D03*
X51900000Y33100000D03*
X51900000Y33900000D03*
X51900000Y34700000D03*
X51900000Y35500000D03*
X51900000Y36300000D03*
X51900000Y37100000D03*
X51900000Y37900000D03*
X51900000Y38700000D03*
D41*
X50800000Y39600000D03*
X50000000Y39600000D03*
X49200000Y39600000D03*
X48400000Y39600000D03*
X47600000Y39600000D03*
X46800000Y39600000D03*
X46000000Y39600000D03*
X45200000Y39600000D03*
X44400000Y39600000D03*
X43600000Y39600000D03*
X42800000Y39600000D03*
X42000000Y39600000D03*
X41200000Y39600000D03*
D42*
X44020000Y36680000D03*
D43*
X44020000Y34700000D03*
X44020000Y32720000D03*
X46000000Y36670000D03*
X46000000Y34700000D03*
X46000000Y32720000D03*
X47970000Y36670000D03*
X47970000Y34700000D03*
X47970000Y32720000D03*
D44*
X51950000Y39650000D03*
X51950000Y29750000D03*
X40050000Y29750000D03*
X40050000Y39650000D03*
%TD*%
D23*
%TO.C,R2*%
X33200000Y26850000D03*
X33200000Y28350000D03*
%TD*%
%TO.C,R8*%
X50800000Y26250000D03*
X50800000Y27750000D03*
%TD*%
D30*
%TO.C,SW1*%
X37200000Y24850000D03*
X43200000Y24850000D03*
X37200000Y21150000D03*
X43200000Y21150000D03*
%TD*%
D12*
%TO.C,C5*%
X17300000Y42800000D03*
X15300000Y42800000D03*
%TD*%
D45*
%TO.C,J2*%
X68840000Y15700000D03*
D46*
X70360000Y17170000D03*
X70360000Y14230000D03*
%TD*%
D47*
%TO.C,C16*%
X18200000Y28470000D03*
X18200000Y23130000D03*
%TD*%
M02*
