%TF.GenerationSoftware,KiCad,Pcbnew,10.0.6*%
%TF.CreationDate,2026-09-26T20:39:47-04:00*%
%TF.ProjectId,gpsspeed,67707373-7065-4656-942e-6b696361645f,rev?*%
%TF.SameCoordinates,Original*%
%TF.FileFunction,Legend,Bot*%
%TF.FilePolarity,Positive*%
%FSLAX46Y46*%
G04 Gerber Fmt 4.6, Leading zero omitted, Abs format (unit mm)*
G04 Created by KiCad (PCBNEW 10.0.6) date 2026-09-26 20:39:47*
%MOMM*%
%LPD*%
G01*
G04 APERTURE LIST*
%ADD10C,0.120000*%
%ADD11C,0.150000*%
%ADD12C,3.200000*%
%ADD13C,0.700000*%
%ADD14O,1.100000X1.900000*%
%ADD15O,1.200000X1.600000*%
%ADD16C,2.200000*%
G04 APERTURE END LIST*
D10*
X55714291Y14436145D02*
X55714291Y13864717D01*
X55714291Y13864717D02*
X55752386Y13750431D01*
X55752386Y13750431D02*
X55828577Y13674240D01*
X55828577Y13674240D02*
X55942862Y13636145D01*
X55942862Y13636145D02*
X56019053Y13636145D01*
X55333338Y13636145D02*
X55333338Y14436145D01*
X55333338Y14436145D02*
X55028576Y14436145D01*
X55028576Y14436145D02*
X54952386Y14398050D01*
X54952386Y14398050D02*
X54914291Y14359955D01*
X54914291Y14359955D02*
X54876195Y14283764D01*
X54876195Y14283764D02*
X54876195Y14169479D01*
X54876195Y14169479D02*
X54914291Y14093288D01*
X54914291Y14093288D02*
X54952386Y14055193D01*
X54952386Y14055193D02*
X55028576Y14017098D01*
X55028576Y14017098D02*
X55333338Y14017098D01*
X54114291Y13636145D02*
X54571434Y13636145D01*
X54342862Y13636145D02*
X54342862Y14436145D01*
X54342862Y14436145D02*
X54419053Y14321860D01*
X54419053Y14321860D02*
X54495243Y14245669D01*
X54495243Y14245669D02*
X54571434Y14207574D01*
X53200005Y13674240D02*
X53123814Y13636145D01*
X53123814Y13636145D02*
X52971433Y13636145D01*
X52971433Y13636145D02*
X52895243Y13674240D01*
X52895243Y13674240D02*
X52857147Y13750431D01*
X52857147Y13750431D02*
X52857147Y13788526D01*
X52857147Y13788526D02*
X52895243Y13864717D01*
X52895243Y13864717D02*
X52971433Y13902812D01*
X52971433Y13902812D02*
X53085719Y13902812D01*
X53085719Y13902812D02*
X53161909Y13940907D01*
X53161909Y13940907D02*
X53200005Y14017098D01*
X53200005Y14017098D02*
X53200005Y14055193D01*
X53200005Y14055193D02*
X53161909Y14131383D01*
X53161909Y14131383D02*
X53085719Y14169479D01*
X53085719Y14169479D02*
X52971433Y14169479D01*
X52971433Y14169479D02*
X52895243Y14131383D01*
X52514290Y13636145D02*
X52514290Y14436145D01*
X52171433Y13636145D02*
X52171433Y14055193D01*
X52171433Y14055193D02*
X52209528Y14131383D01*
X52209528Y14131383D02*
X52285719Y14169479D01*
X52285719Y14169479D02*
X52400005Y14169479D01*
X52400005Y14169479D02*
X52476195Y14131383D01*
X52476195Y14131383D02*
X52514290Y14093288D01*
X51790480Y13636145D02*
X51790480Y14169479D01*
X51790480Y14436145D02*
X51828576Y14398050D01*
X51828576Y14398050D02*
X51790480Y14359955D01*
X51790480Y14359955D02*
X51752385Y14398050D01*
X51752385Y14398050D02*
X51790480Y14436145D01*
X51790480Y14436145D02*
X51790480Y14359955D01*
X51409528Y14169479D02*
X51409528Y13369479D01*
X51409528Y14131383D02*
X51333338Y14169479D01*
X51333338Y14169479D02*
X51180957Y14169479D01*
X51180957Y14169479D02*
X51104766Y14131383D01*
X51104766Y14131383D02*
X51066671Y14093288D01*
X51066671Y14093288D02*
X51028576Y14017098D01*
X51028576Y14017098D02*
X51028576Y13788526D01*
X51028576Y13788526D02*
X51066671Y13712336D01*
X51066671Y13712336D02*
X51104766Y13674240D01*
X51104766Y13674240D02*
X51180957Y13636145D01*
X51180957Y13636145D02*
X51333338Y13636145D01*
X51333338Y13636145D02*
X51409528Y13674240D01*
X50723814Y13674240D02*
X50647623Y13636145D01*
X50647623Y13636145D02*
X50495242Y13636145D01*
X50495242Y13636145D02*
X50419052Y13674240D01*
X50419052Y13674240D02*
X50380956Y13750431D01*
X50380956Y13750431D02*
X50380956Y13788526D01*
X50380956Y13788526D02*
X50419052Y13864717D01*
X50419052Y13864717D02*
X50495242Y13902812D01*
X50495242Y13902812D02*
X50609528Y13902812D01*
X50609528Y13902812D02*
X50685718Y13940907D01*
X50685718Y13940907D02*
X50723814Y14017098D01*
X50723814Y14017098D02*
X50723814Y14055193D01*
X50723814Y14055193D02*
X50685718Y14131383D01*
X50685718Y14131383D02*
X50609528Y14169479D01*
X50609528Y14169479D02*
X50495242Y14169479D01*
X50495242Y14169479D02*
X50419052Y14131383D01*
X49276194Y14436145D02*
X49123813Y14436145D01*
X49123813Y14436145D02*
X49047623Y14398050D01*
X49047623Y14398050D02*
X48971432Y14321860D01*
X48971432Y14321860D02*
X48933337Y14169479D01*
X48933337Y14169479D02*
X48933337Y13902812D01*
X48933337Y13902812D02*
X48971432Y13750431D01*
X48971432Y13750431D02*
X49047623Y13674240D01*
X49047623Y13674240D02*
X49123813Y13636145D01*
X49123813Y13636145D02*
X49276194Y13636145D01*
X49276194Y13636145D02*
X49352385Y13674240D01*
X49352385Y13674240D02*
X49428575Y13750431D01*
X49428575Y13750431D02*
X49466671Y13902812D01*
X49466671Y13902812D02*
X49466671Y14169479D01*
X49466671Y14169479D02*
X49428575Y14321860D01*
X49428575Y14321860D02*
X49352385Y14398050D01*
X49352385Y14398050D02*
X49276194Y14436145D01*
X48590480Y13636145D02*
X48590480Y14436145D01*
X48590480Y14436145D02*
X48285718Y14436145D01*
X48285718Y14436145D02*
X48209528Y14398050D01*
X48209528Y14398050D02*
X48171433Y14359955D01*
X48171433Y14359955D02*
X48133337Y14283764D01*
X48133337Y14283764D02*
X48133337Y14169479D01*
X48133337Y14169479D02*
X48171433Y14093288D01*
X48171433Y14093288D02*
X48209528Y14055193D01*
X48209528Y14055193D02*
X48285718Y14017098D01*
X48285718Y14017098D02*
X48590480Y14017098D01*
X47790480Y14055193D02*
X47523814Y14055193D01*
X47409528Y13636145D02*
X47790480Y13636145D01*
X47790480Y13636145D02*
X47790480Y14436145D01*
X47790480Y14436145D02*
X47409528Y14436145D01*
X47066670Y13636145D02*
X47066670Y14436145D01*
X47066670Y14436145D02*
X46609527Y13636145D01*
X46609527Y13636145D02*
X46609527Y14436145D01*
X46228575Y13712336D02*
X46190480Y13674240D01*
X46190480Y13674240D02*
X46228575Y13636145D01*
X46228575Y13636145D02*
X46266671Y13674240D01*
X46266671Y13674240D02*
X46228575Y13712336D01*
X46228575Y13712336D02*
X46228575Y13636145D01*
X46228575Y14131383D02*
X46190480Y14093288D01*
X46190480Y14093288D02*
X46228575Y14055193D01*
X46228575Y14055193D02*
X46266671Y14093288D01*
X46266671Y14093288D02*
X46228575Y14131383D01*
X46228575Y14131383D02*
X46228575Y14055193D01*
X45238099Y13636145D02*
X45238099Y14436145D01*
X45238099Y14131383D02*
X45161909Y14169479D01*
X45161909Y14169479D02*
X45009528Y14169479D01*
X45009528Y14169479D02*
X44933337Y14131383D01*
X44933337Y14131383D02*
X44895242Y14093288D01*
X44895242Y14093288D02*
X44857147Y14017098D01*
X44857147Y14017098D02*
X44857147Y13788526D01*
X44857147Y13788526D02*
X44895242Y13712336D01*
X44895242Y13712336D02*
X44933337Y13674240D01*
X44933337Y13674240D02*
X45009528Y13636145D01*
X45009528Y13636145D02*
X45161909Y13636145D01*
X45161909Y13636145D02*
X45238099Y13674240D01*
X44514289Y13636145D02*
X44514289Y14169479D01*
X44514289Y14017098D02*
X44476194Y14093288D01*
X44476194Y14093288D02*
X44438099Y14131383D01*
X44438099Y14131383D02*
X44361908Y14169479D01*
X44361908Y14169479D02*
X44285718Y14169479D01*
X44019051Y13636145D02*
X44019051Y14169479D01*
X44019051Y14436145D02*
X44057147Y14398050D01*
X44057147Y14398050D02*
X44019051Y14359955D01*
X44019051Y14359955D02*
X43980956Y14398050D01*
X43980956Y14398050D02*
X44019051Y14436145D01*
X44019051Y14436145D02*
X44019051Y14359955D01*
X43295242Y13636145D02*
X43295242Y14436145D01*
X43295242Y13674240D02*
X43371433Y13636145D01*
X43371433Y13636145D02*
X43523814Y13636145D01*
X43523814Y13636145D02*
X43600004Y13674240D01*
X43600004Y13674240D02*
X43638099Y13712336D01*
X43638099Y13712336D02*
X43676195Y13788526D01*
X43676195Y13788526D02*
X43676195Y14017098D01*
X43676195Y14017098D02*
X43638099Y14093288D01*
X43638099Y14093288D02*
X43600004Y14131383D01*
X43600004Y14131383D02*
X43523814Y14169479D01*
X43523814Y14169479D02*
X43371433Y14169479D01*
X43371433Y14169479D02*
X43295242Y14131383D01*
X42571432Y14169479D02*
X42571432Y13521860D01*
X42571432Y13521860D02*
X42609527Y13445669D01*
X42609527Y13445669D02*
X42647623Y13407574D01*
X42647623Y13407574D02*
X42723813Y13369479D01*
X42723813Y13369479D02*
X42838099Y13369479D01*
X42838099Y13369479D02*
X42914289Y13407574D01*
X42571432Y13674240D02*
X42647623Y13636145D01*
X42647623Y13636145D02*
X42800004Y13636145D01*
X42800004Y13636145D02*
X42876194Y13674240D01*
X42876194Y13674240D02*
X42914289Y13712336D01*
X42914289Y13712336D02*
X42952385Y13788526D01*
X42952385Y13788526D02*
X42952385Y14017098D01*
X42952385Y14017098D02*
X42914289Y14093288D01*
X42914289Y14093288D02*
X42876194Y14131383D01*
X42876194Y14131383D02*
X42800004Y14169479D01*
X42800004Y14169479D02*
X42647623Y14169479D01*
X42647623Y14169479D02*
X42571432Y14131383D01*
X41885717Y13674240D02*
X41961908Y13636145D01*
X41961908Y13636145D02*
X42114289Y13636145D01*
X42114289Y13636145D02*
X42190479Y13674240D01*
X42190479Y13674240D02*
X42228575Y13750431D01*
X42228575Y13750431D02*
X42228575Y14055193D01*
X42228575Y14055193D02*
X42190479Y14131383D01*
X42190479Y14131383D02*
X42114289Y14169479D01*
X42114289Y14169479D02*
X41961908Y14169479D01*
X41961908Y14169479D02*
X41885717Y14131383D01*
X41885717Y14131383D02*
X41847622Y14055193D01*
X41847622Y14055193D02*
X41847622Y13979002D01*
X41847622Y13979002D02*
X42228575Y13902812D01*
X40780956Y13636145D02*
X40857146Y13674240D01*
X40857146Y13674240D02*
X40895241Y13712336D01*
X40895241Y13712336D02*
X40933337Y13788526D01*
X40933337Y13788526D02*
X40933337Y14017098D01*
X40933337Y14017098D02*
X40895241Y14093288D01*
X40895241Y14093288D02*
X40857146Y14131383D01*
X40857146Y14131383D02*
X40780956Y14169479D01*
X40780956Y14169479D02*
X40666670Y14169479D01*
X40666670Y14169479D02*
X40590479Y14131383D01*
X40590479Y14131383D02*
X40552384Y14093288D01*
X40552384Y14093288D02*
X40514289Y14017098D01*
X40514289Y14017098D02*
X40514289Y13788526D01*
X40514289Y13788526D02*
X40552384Y13712336D01*
X40552384Y13712336D02*
X40590479Y13674240D01*
X40590479Y13674240D02*
X40666670Y13636145D01*
X40666670Y13636145D02*
X40780956Y13636145D01*
X40171431Y14169479D02*
X40171431Y13636145D01*
X40171431Y14093288D02*
X40133336Y14131383D01*
X40133336Y14131383D02*
X40057146Y14169479D01*
X40057146Y14169479D02*
X39942860Y14169479D01*
X39942860Y14169479D02*
X39866669Y14131383D01*
X39866669Y14131383D02*
X39828574Y14055193D01*
X39828574Y14055193D02*
X39828574Y13636145D01*
X39333336Y13636145D02*
X39409526Y13674240D01*
X39409526Y13674240D02*
X39447621Y13750431D01*
X39447621Y13750431D02*
X39447621Y14436145D01*
X39104764Y14169479D02*
X38914288Y13636145D01*
X38723811Y14169479D02*
X38914288Y13636145D01*
X38914288Y13636145D02*
X38990478Y13445669D01*
X38990478Y13445669D02*
X39028573Y13407574D01*
X39028573Y13407574D02*
X39104764Y13369479D01*
X37809525Y13636145D02*
X37809525Y14169479D01*
X37809525Y14436145D02*
X37847621Y14398050D01*
X37847621Y14398050D02*
X37809525Y14359955D01*
X37809525Y14359955D02*
X37771430Y14398050D01*
X37771430Y14398050D02*
X37809525Y14436145D01*
X37809525Y14436145D02*
X37809525Y14359955D01*
X37542859Y14169479D02*
X37238097Y14169479D01*
X37428573Y13636145D02*
X37428573Y14321860D01*
X37428573Y14321860D02*
X37390478Y14398050D01*
X37390478Y14398050D02*
X37314288Y14436145D01*
X37314288Y14436145D02*
X37238097Y14436145D01*
X36019049Y13636145D02*
X36019049Y14436145D01*
X36019049Y13674240D02*
X36095240Y13636145D01*
X36095240Y13636145D02*
X36247621Y13636145D01*
X36247621Y13636145D02*
X36323811Y13674240D01*
X36323811Y13674240D02*
X36361906Y13712336D01*
X36361906Y13712336D02*
X36400002Y13788526D01*
X36400002Y13788526D02*
X36400002Y14017098D01*
X36400002Y14017098D02*
X36361906Y14093288D01*
X36361906Y14093288D02*
X36323811Y14131383D01*
X36323811Y14131383D02*
X36247621Y14169479D01*
X36247621Y14169479D02*
X36095240Y14169479D01*
X36095240Y14169479D02*
X36019049Y14131383D01*
X35295239Y13636145D02*
X35295239Y14055193D01*
X35295239Y14055193D02*
X35333334Y14131383D01*
X35333334Y14131383D02*
X35409525Y14169479D01*
X35409525Y14169479D02*
X35561906Y14169479D01*
X35561906Y14169479D02*
X35638096Y14131383D01*
X35295239Y13674240D02*
X35371430Y13636145D01*
X35371430Y13636145D02*
X35561906Y13636145D01*
X35561906Y13636145D02*
X35638096Y13674240D01*
X35638096Y13674240D02*
X35676192Y13750431D01*
X35676192Y13750431D02*
X35676192Y13826621D01*
X35676192Y13826621D02*
X35638096Y13902812D01*
X35638096Y13902812D02*
X35561906Y13940907D01*
X35561906Y13940907D02*
X35371430Y13940907D01*
X35371430Y13940907D02*
X35295239Y13979002D01*
X34952382Y13674240D02*
X34876191Y13636145D01*
X34876191Y13636145D02*
X34723810Y13636145D01*
X34723810Y13636145D02*
X34647620Y13674240D01*
X34647620Y13674240D02*
X34609524Y13750431D01*
X34609524Y13750431D02*
X34609524Y13788526D01*
X34609524Y13788526D02*
X34647620Y13864717D01*
X34647620Y13864717D02*
X34723810Y13902812D01*
X34723810Y13902812D02*
X34838096Y13902812D01*
X34838096Y13902812D02*
X34914286Y13940907D01*
X34914286Y13940907D02*
X34952382Y14017098D01*
X34952382Y14017098D02*
X34952382Y14055193D01*
X34952382Y14055193D02*
X34914286Y14131383D01*
X34914286Y14131383D02*
X34838096Y14169479D01*
X34838096Y14169479D02*
X34723810Y14169479D01*
X34723810Y14169479D02*
X34647620Y14131383D01*
X34266667Y13636145D02*
X34266667Y14436145D01*
X33923810Y13636145D02*
X33923810Y14055193D01*
X33923810Y14055193D02*
X33961905Y14131383D01*
X33961905Y14131383D02*
X34038096Y14169479D01*
X34038096Y14169479D02*
X34152382Y14169479D01*
X34152382Y14169479D02*
X34228572Y14131383D01*
X34228572Y14131383D02*
X34266667Y14093288D01*
X32933333Y13636145D02*
X32933333Y14436145D01*
X32590476Y13636145D02*
X32590476Y14055193D01*
X32590476Y14055193D02*
X32628571Y14131383D01*
X32628571Y14131383D02*
X32704762Y14169479D01*
X32704762Y14169479D02*
X32819048Y14169479D01*
X32819048Y14169479D02*
X32895238Y14131383D01*
X32895238Y14131383D02*
X32933333Y14093288D01*
X31866666Y13636145D02*
X31866666Y14055193D01*
X31866666Y14055193D02*
X31904761Y14131383D01*
X31904761Y14131383D02*
X31980952Y14169479D01*
X31980952Y14169479D02*
X32133333Y14169479D01*
X32133333Y14169479D02*
X32209523Y14131383D01*
X31866666Y13674240D02*
X31942857Y13636145D01*
X31942857Y13636145D02*
X32133333Y13636145D01*
X32133333Y13636145D02*
X32209523Y13674240D01*
X32209523Y13674240D02*
X32247619Y13750431D01*
X32247619Y13750431D02*
X32247619Y13826621D01*
X32247619Y13826621D02*
X32209523Y13902812D01*
X32209523Y13902812D02*
X32133333Y13940907D01*
X32133333Y13940907D02*
X31942857Y13940907D01*
X31942857Y13940907D02*
X31866666Y13979002D01*
X31523809Y13674240D02*
X31447618Y13636145D01*
X31447618Y13636145D02*
X31295237Y13636145D01*
X31295237Y13636145D02*
X31219047Y13674240D01*
X31219047Y13674240D02*
X31180951Y13750431D01*
X31180951Y13750431D02*
X31180951Y13788526D01*
X31180951Y13788526D02*
X31219047Y13864717D01*
X31219047Y13864717D02*
X31295237Y13902812D01*
X31295237Y13902812D02*
X31409523Y13902812D01*
X31409523Y13902812D02*
X31485713Y13940907D01*
X31485713Y13940907D02*
X31523809Y14017098D01*
X31523809Y14017098D02*
X31523809Y14055193D01*
X31523809Y14055193D02*
X31485713Y14131383D01*
X31485713Y14131383D02*
X31409523Y14169479D01*
X31409523Y14169479D02*
X31295237Y14169479D01*
X31295237Y14169479D02*
X31219047Y14131383D01*
X30228570Y14169479D02*
X30228570Y13636145D01*
X30228570Y14093288D02*
X30190475Y14131383D01*
X30190475Y14131383D02*
X30114285Y14169479D01*
X30114285Y14169479D02*
X29999999Y14169479D01*
X29999999Y14169479D02*
X29923808Y14131383D01*
X29923808Y14131383D02*
X29885713Y14055193D01*
X29885713Y14055193D02*
X29885713Y13636145D01*
X29390475Y13636145D02*
X29466665Y13674240D01*
X29466665Y13674240D02*
X29504760Y13712336D01*
X29504760Y13712336D02*
X29542856Y13788526D01*
X29542856Y13788526D02*
X29542856Y14017098D01*
X29542856Y14017098D02*
X29504760Y14093288D01*
X29504760Y14093288D02*
X29466665Y14131383D01*
X29466665Y14131383D02*
X29390475Y14169479D01*
X29390475Y14169479D02*
X29276189Y14169479D01*
X29276189Y14169479D02*
X29199998Y14131383D01*
X29199998Y14131383D02*
X29161903Y14093288D01*
X29161903Y14093288D02*
X29123808Y14017098D01*
X29123808Y14017098D02*
X29123808Y13788526D01*
X29123808Y13788526D02*
X29161903Y13712336D01*
X29161903Y13712336D02*
X29199998Y13674240D01*
X29199998Y13674240D02*
X29276189Y13636145D01*
X29276189Y13636145D02*
X29390475Y13636145D01*
X28171426Y14169479D02*
X28171426Y13369479D01*
X28171426Y14131383D02*
X28095236Y14169479D01*
X28095236Y14169479D02*
X27942855Y14169479D01*
X27942855Y14169479D02*
X27866664Y14131383D01*
X27866664Y14131383D02*
X27828569Y14093288D01*
X27828569Y14093288D02*
X27790474Y14017098D01*
X27790474Y14017098D02*
X27790474Y13788526D01*
X27790474Y13788526D02*
X27828569Y13712336D01*
X27828569Y13712336D02*
X27866664Y13674240D01*
X27866664Y13674240D02*
X27942855Y13636145D01*
X27942855Y13636145D02*
X28095236Y13636145D01*
X28095236Y13636145D02*
X28171426Y13674240D01*
X27104759Y14169479D02*
X27104759Y13636145D01*
X27447616Y14169479D02*
X27447616Y13750431D01*
X27447616Y13750431D02*
X27409521Y13674240D01*
X27409521Y13674240D02*
X27333331Y13636145D01*
X27333331Y13636145D02*
X27219045Y13636145D01*
X27219045Y13636145D02*
X27142854Y13674240D01*
X27142854Y13674240D02*
X27104759Y13712336D01*
X26609521Y13636145D02*
X26685711Y13674240D01*
X26685711Y13674240D02*
X26723806Y13750431D01*
X26723806Y13750431D02*
X26723806Y14436145D01*
X26190473Y13636145D02*
X26266663Y13674240D01*
X26266663Y13674240D02*
X26304758Y13750431D01*
X26304758Y13750431D02*
X26304758Y14436145D01*
X25885710Y13940907D02*
X25276187Y13940907D01*
X24552377Y14169479D02*
X24552377Y13636145D01*
X24895234Y14169479D02*
X24895234Y13750431D01*
X24895234Y13750431D02*
X24857139Y13674240D01*
X24857139Y13674240D02*
X24780949Y13636145D01*
X24780949Y13636145D02*
X24666663Y13636145D01*
X24666663Y13636145D02*
X24590472Y13674240D01*
X24590472Y13674240D02*
X24552377Y13712336D01*
X24171424Y14169479D02*
X24171424Y13369479D01*
X24171424Y14131383D02*
X24095234Y14169479D01*
X24095234Y14169479D02*
X23942853Y14169479D01*
X23942853Y14169479D02*
X23866662Y14131383D01*
X23866662Y14131383D02*
X23828567Y14093288D01*
X23828567Y14093288D02*
X23790472Y14017098D01*
X23790472Y14017098D02*
X23790472Y13788526D01*
X23790472Y13788526D02*
X23828567Y13712336D01*
X23828567Y13712336D02*
X23866662Y13674240D01*
X23866662Y13674240D02*
X23942853Y13636145D01*
X23942853Y13636145D02*
X24095234Y13636145D01*
X24095234Y13636145D02*
X24171424Y13674240D01*
X22609519Y13331383D02*
X22647614Y13369479D01*
X22647614Y13369479D02*
X22723805Y13483764D01*
X22723805Y13483764D02*
X22761900Y13559955D01*
X22761900Y13559955D02*
X22799995Y13674240D01*
X22799995Y13674240D02*
X22838090Y13864717D01*
X22838090Y13864717D02*
X22838090Y14017098D01*
X22838090Y14017098D02*
X22799995Y14207574D01*
X22799995Y14207574D02*
X22761900Y14321860D01*
X22761900Y14321860D02*
X22723805Y14398050D01*
X22723805Y14398050D02*
X22647614Y14512336D01*
X22647614Y14512336D02*
X22609519Y14550431D01*
X21885710Y13636145D02*
X22342853Y13636145D01*
X22114281Y13636145D02*
X22114281Y14436145D01*
X22114281Y14436145D02*
X22190472Y14321860D01*
X22190472Y14321860D02*
X22266662Y14245669D01*
X22266662Y14245669D02*
X22342853Y14207574D01*
X21580948Y14359955D02*
X21542852Y14398050D01*
X21542852Y14398050D02*
X21466662Y14436145D01*
X21466662Y14436145D02*
X21276186Y14436145D01*
X21276186Y14436145D02*
X21199995Y14398050D01*
X21199995Y14398050D02*
X21161900Y14359955D01*
X21161900Y14359955D02*
X21123805Y14283764D01*
X21123805Y14283764D02*
X21123805Y14207574D01*
X21123805Y14207574D02*
X21161900Y14093288D01*
X21161900Y14093288D02*
X21619043Y13636145D01*
X21619043Y13636145D02*
X21123805Y13636145D01*
X20895233Y14436145D02*
X20628566Y13636145D01*
X20628566Y13636145D02*
X20361900Y14436145D01*
X19485709Y13636145D02*
X19485709Y14436145D01*
X19485709Y14131383D02*
X19409519Y14169479D01*
X19409519Y14169479D02*
X19257138Y14169479D01*
X19257138Y14169479D02*
X19180947Y14131383D01*
X19180947Y14131383D02*
X19142852Y14093288D01*
X19142852Y14093288D02*
X19104757Y14017098D01*
X19104757Y14017098D02*
X19104757Y13788526D01*
X19104757Y13788526D02*
X19142852Y13712336D01*
X19142852Y13712336D02*
X19180947Y13674240D01*
X19180947Y13674240D02*
X19257138Y13636145D01*
X19257138Y13636145D02*
X19409519Y13636145D01*
X19409519Y13636145D02*
X19485709Y13674240D01*
X18647614Y13636145D02*
X18723804Y13674240D01*
X18723804Y13674240D02*
X18761899Y13712336D01*
X18761899Y13712336D02*
X18799995Y13788526D01*
X18799995Y13788526D02*
X18799995Y14017098D01*
X18799995Y14017098D02*
X18761899Y14093288D01*
X18761899Y14093288D02*
X18723804Y14131383D01*
X18723804Y14131383D02*
X18647614Y14169479D01*
X18647614Y14169479D02*
X18533328Y14169479D01*
X18533328Y14169479D02*
X18457137Y14131383D01*
X18457137Y14131383D02*
X18419042Y14093288D01*
X18419042Y14093288D02*
X18380947Y14017098D01*
X18380947Y14017098D02*
X18380947Y13788526D01*
X18380947Y13788526D02*
X18419042Y13712336D01*
X18419042Y13712336D02*
X18457137Y13674240D01*
X18457137Y13674240D02*
X18533328Y13636145D01*
X18533328Y13636145D02*
X18647614Y13636145D01*
X17695232Y13636145D02*
X17695232Y14055193D01*
X17695232Y14055193D02*
X17733327Y14131383D01*
X17733327Y14131383D02*
X17809518Y14169479D01*
X17809518Y14169479D02*
X17961899Y14169479D01*
X17961899Y14169479D02*
X18038089Y14131383D01*
X17695232Y13674240D02*
X17771423Y13636145D01*
X17771423Y13636145D02*
X17961899Y13636145D01*
X17961899Y13636145D02*
X18038089Y13674240D01*
X18038089Y13674240D02*
X18076185Y13750431D01*
X18076185Y13750431D02*
X18076185Y13826621D01*
X18076185Y13826621D02*
X18038089Y13902812D01*
X18038089Y13902812D02*
X17961899Y13940907D01*
X17961899Y13940907D02*
X17771423Y13940907D01*
X17771423Y13940907D02*
X17695232Y13979002D01*
X17428565Y14169479D02*
X17123803Y14169479D01*
X17314279Y14436145D02*
X17314279Y13750431D01*
X17314279Y13750431D02*
X17276184Y13674240D01*
X17276184Y13674240D02*
X17199994Y13636145D01*
X17199994Y13636145D02*
X17123803Y13636145D01*
X16895232Y13674240D02*
X16819041Y13636145D01*
X16819041Y13636145D02*
X16666660Y13636145D01*
X16666660Y13636145D02*
X16590470Y13674240D01*
X16590470Y13674240D02*
X16552374Y13750431D01*
X16552374Y13750431D02*
X16552374Y13788526D01*
X16552374Y13788526D02*
X16590470Y13864717D01*
X16590470Y13864717D02*
X16666660Y13902812D01*
X16666660Y13902812D02*
X16780946Y13902812D01*
X16780946Y13902812D02*
X16857136Y13940907D01*
X16857136Y13940907D02*
X16895232Y14017098D01*
X16895232Y14017098D02*
X16895232Y14055193D01*
X16895232Y14055193D02*
X16857136Y14131383D01*
X16857136Y14131383D02*
X16780946Y14169479D01*
X16780946Y14169479D02*
X16666660Y14169479D01*
X16666660Y14169479D02*
X16590470Y14131383D01*
X16285708Y13331383D02*
X16247613Y13369479D01*
X16247613Y13369479D02*
X16171422Y13483764D01*
X16171422Y13483764D02*
X16133327Y13559955D01*
X16133327Y13559955D02*
X16095232Y13674240D01*
X16095232Y13674240D02*
X16057136Y13864717D01*
X16057136Y13864717D02*
X16057136Y14017098D01*
X16057136Y14017098D02*
X16095232Y14207574D01*
X16095232Y14207574D02*
X16133327Y14321860D01*
X16133327Y14321860D02*
X16171422Y14398050D01*
X16171422Y14398050D02*
X16247613Y14512336D01*
X16247613Y14512336D02*
X16285708Y14550431D01*
X39695238Y11936145D02*
X39695238Y11364717D01*
X39695238Y11364717D02*
X39733333Y11250431D01*
X39733333Y11250431D02*
X39809524Y11174240D01*
X39809524Y11174240D02*
X39923809Y11136145D01*
X39923809Y11136145D02*
X40000000Y11136145D01*
X38933333Y11136145D02*
X39314285Y11136145D01*
X39314285Y11136145D02*
X39314285Y11936145D01*
X38209523Y11212336D02*
X38247619Y11174240D01*
X38247619Y11174240D02*
X38361904Y11136145D01*
X38361904Y11136145D02*
X38438095Y11136145D01*
X38438095Y11136145D02*
X38552381Y11174240D01*
X38552381Y11174240D02*
X38628571Y11250431D01*
X38628571Y11250431D02*
X38666666Y11326621D01*
X38666666Y11326621D02*
X38704762Y11479002D01*
X38704762Y11479002D02*
X38704762Y11593288D01*
X38704762Y11593288D02*
X38666666Y11745669D01*
X38666666Y11745669D02*
X38628571Y11821860D01*
X38628571Y11821860D02*
X38552381Y11898050D01*
X38552381Y11898050D02*
X38438095Y11936145D01*
X38438095Y11936145D02*
X38361904Y11936145D01*
X38361904Y11936145D02*
X38247619Y11898050D01*
X38247619Y11898050D02*
X38209523Y11859955D01*
X37638095Y11936145D02*
X37638095Y11364717D01*
X37638095Y11364717D02*
X37676190Y11250431D01*
X37676190Y11250431D02*
X37752381Y11174240D01*
X37752381Y11174240D02*
X37866666Y11136145D01*
X37866666Y11136145D02*
X37942857Y11136145D01*
X36876190Y11136145D02*
X37257142Y11136145D01*
X37257142Y11136145D02*
X37257142Y11936145D01*
X36152380Y11212336D02*
X36190476Y11174240D01*
X36190476Y11174240D02*
X36304761Y11136145D01*
X36304761Y11136145D02*
X36380952Y11136145D01*
X36380952Y11136145D02*
X36495238Y11174240D01*
X36495238Y11174240D02*
X36571428Y11250431D01*
X36571428Y11250431D02*
X36609523Y11326621D01*
X36609523Y11326621D02*
X36647619Y11479002D01*
X36647619Y11479002D02*
X36647619Y11593288D01*
X36647619Y11593288D02*
X36609523Y11745669D01*
X36609523Y11745669D02*
X36571428Y11821860D01*
X36571428Y11821860D02*
X36495238Y11898050D01*
X36495238Y11898050D02*
X36380952Y11936145D01*
X36380952Y11936145D02*
X36304761Y11936145D01*
X36304761Y11936145D02*
X36190476Y11898050D01*
X36190476Y11898050D02*
X36152380Y11859955D01*
X35580952Y11936145D02*
X35580952Y11364717D01*
X35580952Y11364717D02*
X35619047Y11250431D01*
X35619047Y11250431D02*
X35695238Y11174240D01*
X35695238Y11174240D02*
X35809523Y11136145D01*
X35809523Y11136145D02*
X35885714Y11136145D01*
X34819047Y11136145D02*
X35199999Y11136145D01*
X35199999Y11136145D02*
X35199999Y11936145D01*
X34095237Y11212336D02*
X34133333Y11174240D01*
X34133333Y11174240D02*
X34247618Y11136145D01*
X34247618Y11136145D02*
X34323809Y11136145D01*
X34323809Y11136145D02*
X34438095Y11174240D01*
X34438095Y11174240D02*
X34514285Y11250431D01*
X34514285Y11250431D02*
X34552380Y11326621D01*
X34552380Y11326621D02*
X34590476Y11479002D01*
X34590476Y11479002D02*
X34590476Y11593288D01*
X34590476Y11593288D02*
X34552380Y11745669D01*
X34552380Y11745669D02*
X34514285Y11821860D01*
X34514285Y11821860D02*
X34438095Y11898050D01*
X34438095Y11898050D02*
X34323809Y11936145D01*
X34323809Y11936145D02*
X34247618Y11936145D01*
X34247618Y11936145D02*
X34133333Y11898050D01*
X34133333Y11898050D02*
X34095237Y11859955D01*
X33523809Y11936145D02*
X33523809Y11364717D01*
X33523809Y11364717D02*
X33561904Y11250431D01*
X33561904Y11250431D02*
X33638095Y11174240D01*
X33638095Y11174240D02*
X33752380Y11136145D01*
X33752380Y11136145D02*
X33828571Y11136145D01*
X32761904Y11136145D02*
X33142856Y11136145D01*
X33142856Y11136145D02*
X33142856Y11936145D01*
X32038094Y11212336D02*
X32076190Y11174240D01*
X32076190Y11174240D02*
X32190475Y11136145D01*
X32190475Y11136145D02*
X32266666Y11136145D01*
X32266666Y11136145D02*
X32380952Y11174240D01*
X32380952Y11174240D02*
X32457142Y11250431D01*
X32457142Y11250431D02*
X32495237Y11326621D01*
X32495237Y11326621D02*
X32533333Y11479002D01*
X32533333Y11479002D02*
X32533333Y11593288D01*
X32533333Y11593288D02*
X32495237Y11745669D01*
X32495237Y11745669D02*
X32457142Y11821860D01*
X32457142Y11821860D02*
X32380952Y11898050D01*
X32380952Y11898050D02*
X32266666Y11936145D01*
X32266666Y11936145D02*
X32190475Y11936145D01*
X32190475Y11936145D02*
X32076190Y11898050D01*
X32076190Y11898050D02*
X32038094Y11859955D01*
D11*
X50761905Y16497562D02*
X50857143Y16545181D01*
X50857143Y16545181D02*
X51000000Y16545181D01*
X51000000Y16545181D02*
X51142857Y16497562D01*
X51142857Y16497562D02*
X51238095Y16402324D01*
X51238095Y16402324D02*
X51285714Y16307086D01*
X51285714Y16307086D02*
X51333333Y16116610D01*
X51333333Y16116610D02*
X51333333Y15973753D01*
X51333333Y15973753D02*
X51285714Y15783277D01*
X51285714Y15783277D02*
X51238095Y15688039D01*
X51238095Y15688039D02*
X51142857Y15592800D01*
X51142857Y15592800D02*
X51000000Y15545181D01*
X51000000Y15545181D02*
X50904762Y15545181D01*
X50904762Y15545181D02*
X50761905Y15592800D01*
X50761905Y15592800D02*
X50714286Y15640420D01*
X50714286Y15640420D02*
X50714286Y15973753D01*
X50714286Y15973753D02*
X50904762Y15973753D01*
X50285714Y15545181D02*
X50285714Y16545181D01*
X50285714Y16545181D02*
X49904762Y16545181D01*
X49904762Y16545181D02*
X49809524Y16497562D01*
X49809524Y16497562D02*
X49761905Y16449943D01*
X49761905Y16449943D02*
X49714286Y16354705D01*
X49714286Y16354705D02*
X49714286Y16211848D01*
X49714286Y16211848D02*
X49761905Y16116610D01*
X49761905Y16116610D02*
X49809524Y16068991D01*
X49809524Y16068991D02*
X49904762Y16021372D01*
X49904762Y16021372D02*
X50285714Y16021372D01*
X49333333Y15592800D02*
X49190476Y15545181D01*
X49190476Y15545181D02*
X48952381Y15545181D01*
X48952381Y15545181D02*
X48857143Y15592800D01*
X48857143Y15592800D02*
X48809524Y15640420D01*
X48809524Y15640420D02*
X48761905Y15735658D01*
X48761905Y15735658D02*
X48761905Y15830896D01*
X48761905Y15830896D02*
X48809524Y15926134D01*
X48809524Y15926134D02*
X48857143Y15973753D01*
X48857143Y15973753D02*
X48952381Y16021372D01*
X48952381Y16021372D02*
X49142857Y16068991D01*
X49142857Y16068991D02*
X49238095Y16116610D01*
X49238095Y16116610D02*
X49285714Y16164229D01*
X49285714Y16164229D02*
X49333333Y16259467D01*
X49333333Y16259467D02*
X49333333Y16354705D01*
X49333333Y16354705D02*
X49285714Y16449943D01*
X49285714Y16449943D02*
X49238095Y16497562D01*
X49238095Y16497562D02*
X49142857Y16545181D01*
X49142857Y16545181D02*
X48904762Y16545181D01*
X48904762Y16545181D02*
X48761905Y16497562D01*
X48380952Y15592800D02*
X48238095Y15545181D01*
X48238095Y15545181D02*
X48000000Y15545181D01*
X48000000Y15545181D02*
X47904762Y15592800D01*
X47904762Y15592800D02*
X47857143Y15640420D01*
X47857143Y15640420D02*
X47809524Y15735658D01*
X47809524Y15735658D02*
X47809524Y15830896D01*
X47809524Y15830896D02*
X47857143Y15926134D01*
X47857143Y15926134D02*
X47904762Y15973753D01*
X47904762Y15973753D02*
X48000000Y16021372D01*
X48000000Y16021372D02*
X48190476Y16068991D01*
X48190476Y16068991D02*
X48285714Y16116610D01*
X48285714Y16116610D02*
X48333333Y16164229D01*
X48333333Y16164229D02*
X48380952Y16259467D01*
X48380952Y16259467D02*
X48380952Y16354705D01*
X48380952Y16354705D02*
X48333333Y16449943D01*
X48333333Y16449943D02*
X48285714Y16497562D01*
X48285714Y16497562D02*
X48190476Y16545181D01*
X48190476Y16545181D02*
X47952381Y16545181D01*
X47952381Y16545181D02*
X47809524Y16497562D01*
X47380952Y16211848D02*
X47380952Y15211848D01*
X47380952Y16164229D02*
X47285714Y16211848D01*
X47285714Y16211848D02*
X47095238Y16211848D01*
X47095238Y16211848D02*
X47000000Y16164229D01*
X47000000Y16164229D02*
X46952381Y16116610D01*
X46952381Y16116610D02*
X46904762Y16021372D01*
X46904762Y16021372D02*
X46904762Y15735658D01*
X46904762Y15735658D02*
X46952381Y15640420D01*
X46952381Y15640420D02*
X47000000Y15592800D01*
X47000000Y15592800D02*
X47095238Y15545181D01*
X47095238Y15545181D02*
X47285714Y15545181D01*
X47285714Y15545181D02*
X47380952Y15592800D01*
X46095238Y15592800D02*
X46190476Y15545181D01*
X46190476Y15545181D02*
X46380952Y15545181D01*
X46380952Y15545181D02*
X46476190Y15592800D01*
X46476190Y15592800D02*
X46523809Y15688039D01*
X46523809Y15688039D02*
X46523809Y16068991D01*
X46523809Y16068991D02*
X46476190Y16164229D01*
X46476190Y16164229D02*
X46380952Y16211848D01*
X46380952Y16211848D02*
X46190476Y16211848D01*
X46190476Y16211848D02*
X46095238Y16164229D01*
X46095238Y16164229D02*
X46047619Y16068991D01*
X46047619Y16068991D02*
X46047619Y15973753D01*
X46047619Y15973753D02*
X46523809Y15878515D01*
X45238095Y15592800D02*
X45333333Y15545181D01*
X45333333Y15545181D02*
X45523809Y15545181D01*
X45523809Y15545181D02*
X45619047Y15592800D01*
X45619047Y15592800D02*
X45666666Y15688039D01*
X45666666Y15688039D02*
X45666666Y16068991D01*
X45666666Y16068991D02*
X45619047Y16164229D01*
X45619047Y16164229D02*
X45523809Y16211848D01*
X45523809Y16211848D02*
X45333333Y16211848D01*
X45333333Y16211848D02*
X45238095Y16164229D01*
X45238095Y16164229D02*
X45190476Y16068991D01*
X45190476Y16068991D02*
X45190476Y15973753D01*
X45190476Y15973753D02*
X45666666Y15878515D01*
X44333333Y15545181D02*
X44333333Y16545181D01*
X44333333Y15592800D02*
X44428571Y15545181D01*
X44428571Y15545181D02*
X44619047Y15545181D01*
X44619047Y15545181D02*
X44714285Y15592800D01*
X44714285Y15592800D02*
X44761904Y15640420D01*
X44761904Y15640420D02*
X44809523Y15735658D01*
X44809523Y15735658D02*
X44809523Y16021372D01*
X44809523Y16021372D02*
X44761904Y16116610D01*
X44761904Y16116610D02*
X44714285Y16164229D01*
X44714285Y16164229D02*
X44619047Y16211848D01*
X44619047Y16211848D02*
X44428571Y16211848D01*
X44428571Y16211848D02*
X44333333Y16164229D01*
X43190475Y16211848D02*
X42952380Y15545181D01*
X42952380Y15545181D02*
X42714285Y16211848D01*
X41904761Y16211848D02*
X41904761Y15545181D01*
X42142856Y16592800D02*
X42380951Y15878515D01*
X42380951Y15878515D02*
X41761904Y15878515D01*
X40619046Y15926134D02*
X39857142Y15926134D01*
X38619046Y16068991D02*
X38285713Y16068991D01*
X38142856Y15545181D02*
X38619046Y15545181D01*
X38619046Y15545181D02*
X38619046Y16545181D01*
X38619046Y16545181D02*
X38142856Y16545181D01*
X37761903Y15592800D02*
X37619046Y15545181D01*
X37619046Y15545181D02*
X37380951Y15545181D01*
X37380951Y15545181D02*
X37285713Y15592800D01*
X37285713Y15592800D02*
X37238094Y15640420D01*
X37238094Y15640420D02*
X37190475Y15735658D01*
X37190475Y15735658D02*
X37190475Y15830896D01*
X37190475Y15830896D02*
X37238094Y15926134D01*
X37238094Y15926134D02*
X37285713Y15973753D01*
X37285713Y15973753D02*
X37380951Y16021372D01*
X37380951Y16021372D02*
X37571427Y16068991D01*
X37571427Y16068991D02*
X37666665Y16116610D01*
X37666665Y16116610D02*
X37714284Y16164229D01*
X37714284Y16164229D02*
X37761903Y16259467D01*
X37761903Y16259467D02*
X37761903Y16354705D01*
X37761903Y16354705D02*
X37714284Y16449943D01*
X37714284Y16449943D02*
X37666665Y16497562D01*
X37666665Y16497562D02*
X37571427Y16545181D01*
X37571427Y16545181D02*
X37333332Y16545181D01*
X37333332Y16545181D02*
X37190475Y16497562D01*
X36761903Y15545181D02*
X36761903Y16545181D01*
X36761903Y16545181D02*
X36380951Y16545181D01*
X36380951Y16545181D02*
X36285713Y16497562D01*
X36285713Y16497562D02*
X36238094Y16449943D01*
X36238094Y16449943D02*
X36190475Y16354705D01*
X36190475Y16354705D02*
X36190475Y16211848D01*
X36190475Y16211848D02*
X36238094Y16116610D01*
X36238094Y16116610D02*
X36285713Y16068991D01*
X36285713Y16068991D02*
X36380951Y16021372D01*
X36380951Y16021372D02*
X36761903Y16021372D01*
X35857141Y16545181D02*
X35238094Y16545181D01*
X35238094Y16545181D02*
X35571427Y16164229D01*
X35571427Y16164229D02*
X35428570Y16164229D01*
X35428570Y16164229D02*
X35333332Y16116610D01*
X35333332Y16116610D02*
X35285713Y16068991D01*
X35285713Y16068991D02*
X35238094Y15973753D01*
X35238094Y15973753D02*
X35238094Y15735658D01*
X35238094Y15735658D02*
X35285713Y15640420D01*
X35285713Y15640420D02*
X35333332Y15592800D01*
X35333332Y15592800D02*
X35428570Y15545181D01*
X35428570Y15545181D02*
X35714284Y15545181D01*
X35714284Y15545181D02*
X35809522Y15592800D01*
X35809522Y15592800D02*
X35857141Y15640420D01*
X34857141Y16449943D02*
X34809522Y16497562D01*
X34809522Y16497562D02*
X34714284Y16545181D01*
X34714284Y16545181D02*
X34476189Y16545181D01*
X34476189Y16545181D02*
X34380951Y16497562D01*
X34380951Y16497562D02*
X34333332Y16449943D01*
X34333332Y16449943D02*
X34285713Y16354705D01*
X34285713Y16354705D02*
X34285713Y16259467D01*
X34285713Y16259467D02*
X34333332Y16116610D01*
X34333332Y16116610D02*
X34904760Y15545181D01*
X34904760Y15545181D02*
X34285713Y15545181D01*
X33857141Y15926134D02*
X33095237Y15926134D01*
X32047618Y15640420D02*
X32095237Y15592800D01*
X32095237Y15592800D02*
X32238094Y15545181D01*
X32238094Y15545181D02*
X32333332Y15545181D01*
X32333332Y15545181D02*
X32476189Y15592800D01*
X32476189Y15592800D02*
X32571427Y15688039D01*
X32571427Y15688039D02*
X32619046Y15783277D01*
X32619046Y15783277D02*
X32666665Y15973753D01*
X32666665Y15973753D02*
X32666665Y16116610D01*
X32666665Y16116610D02*
X32619046Y16307086D01*
X32619046Y16307086D02*
X32571427Y16402324D01*
X32571427Y16402324D02*
X32476189Y16497562D01*
X32476189Y16497562D02*
X32333332Y16545181D01*
X32333332Y16545181D02*
X32238094Y16545181D01*
X32238094Y16545181D02*
X32095237Y16497562D01*
X32095237Y16497562D02*
X32047618Y16449943D01*
X31714284Y16545181D02*
X31095237Y16545181D01*
X31095237Y16545181D02*
X31428570Y16164229D01*
X31428570Y16164229D02*
X31285713Y16164229D01*
X31285713Y16164229D02*
X31190475Y16116610D01*
X31190475Y16116610D02*
X31142856Y16068991D01*
X31142856Y16068991D02*
X31095237Y15973753D01*
X31095237Y15973753D02*
X31095237Y15735658D01*
X31095237Y15735658D02*
X31142856Y15640420D01*
X31142856Y15640420D02*
X31190475Y15592800D01*
X31190475Y15592800D02*
X31285713Y15545181D01*
X31285713Y15545181D02*
X31571427Y15545181D01*
X31571427Y15545181D02*
X31666665Y15592800D01*
X31666665Y15592800D02*
X31714284Y15640420D01*
X29904760Y15926134D02*
X29142856Y15926134D01*
X29523808Y15545181D02*
X29523808Y16307086D01*
X27952379Y15830896D02*
X27476189Y15830896D01*
X28047617Y15545181D02*
X27714284Y16545181D01*
X27714284Y16545181D02*
X27380951Y15545181D01*
X27190474Y16545181D02*
X26619046Y16545181D01*
X26904760Y15545181D02*
X26904760Y16545181D01*
X25761903Y16497562D02*
X25857141Y16545181D01*
X25857141Y16545181D02*
X25999998Y16545181D01*
X25999998Y16545181D02*
X26142855Y16497562D01*
X26142855Y16497562D02*
X26238093Y16402324D01*
X26238093Y16402324D02*
X26285712Y16307086D01*
X26285712Y16307086D02*
X26333331Y16116610D01*
X26333331Y16116610D02*
X26333331Y15973753D01*
X26333331Y15973753D02*
X26285712Y15783277D01*
X26285712Y15783277D02*
X26238093Y15688039D01*
X26238093Y15688039D02*
X26142855Y15592800D01*
X26142855Y15592800D02*
X25999998Y15545181D01*
X25999998Y15545181D02*
X25904760Y15545181D01*
X25904760Y15545181D02*
X25761903Y15592800D01*
X25761903Y15592800D02*
X25714284Y15640420D01*
X25714284Y15640420D02*
X25714284Y15973753D01*
X25714284Y15973753D02*
X25904760Y15973753D01*
X25285712Y15545181D02*
X25285712Y16545181D01*
X25285712Y16545181D02*
X24952379Y15830896D01*
X24952379Y15830896D02*
X24619046Y16545181D01*
X24619046Y16545181D02*
X24619046Y15545181D01*
X24238093Y16545181D02*
X23619046Y16545181D01*
X23619046Y16545181D02*
X23952379Y16164229D01*
X23952379Y16164229D02*
X23809522Y16164229D01*
X23809522Y16164229D02*
X23714284Y16116610D01*
X23714284Y16116610D02*
X23666665Y16068991D01*
X23666665Y16068991D02*
X23619046Y15973753D01*
X23619046Y15973753D02*
X23619046Y15735658D01*
X23619046Y15735658D02*
X23666665Y15640420D01*
X23666665Y15640420D02*
X23714284Y15592800D01*
X23714284Y15592800D02*
X23809522Y15545181D01*
X23809522Y15545181D02*
X24095236Y15545181D01*
X24095236Y15545181D02*
X24190474Y15592800D01*
X24190474Y15592800D02*
X24238093Y15640420D01*
X23285712Y16545181D02*
X22666665Y16545181D01*
X22666665Y16545181D02*
X22999998Y16164229D01*
X22999998Y16164229D02*
X22857141Y16164229D01*
X22857141Y16164229D02*
X22761903Y16116610D01*
X22761903Y16116610D02*
X22714284Y16068991D01*
X22714284Y16068991D02*
X22666665Y15973753D01*
X22666665Y15973753D02*
X22666665Y15735658D01*
X22666665Y15735658D02*
X22714284Y15640420D01*
X22714284Y15640420D02*
X22761903Y15592800D01*
X22761903Y15592800D02*
X22857141Y15545181D01*
X22857141Y15545181D02*
X23142855Y15545181D01*
X23142855Y15545181D02*
X23238093Y15592800D01*
X23238093Y15592800D02*
X23285712Y15640420D01*
X21809522Y16545181D02*
X21999998Y16545181D01*
X21999998Y16545181D02*
X22095236Y16497562D01*
X22095236Y16497562D02*
X22142855Y16449943D01*
X22142855Y16449943D02*
X22238093Y16307086D01*
X22238093Y16307086D02*
X22285712Y16116610D01*
X22285712Y16116610D02*
X22285712Y15735658D01*
X22285712Y15735658D02*
X22238093Y15640420D01*
X22238093Y15640420D02*
X22190474Y15592800D01*
X22190474Y15592800D02*
X22095236Y15545181D01*
X22095236Y15545181D02*
X21904760Y15545181D01*
X21904760Y15545181D02*
X21809522Y15592800D01*
X21809522Y15592800D02*
X21761903Y15640420D01*
X21761903Y15640420D02*
X21714284Y15735658D01*
X21714284Y15735658D02*
X21714284Y15973753D01*
X21714284Y15973753D02*
X21761903Y16068991D01*
X21761903Y16068991D02*
X21809522Y16116610D01*
X21809522Y16116610D02*
X21904760Y16164229D01*
X21904760Y16164229D02*
X22095236Y16164229D01*
X22095236Y16164229D02*
X22190474Y16116610D01*
X22190474Y16116610D02*
X22238093Y16068991D01*
X22238093Y16068991D02*
X22285712Y15973753D01*
X21285712Y15545181D02*
X21285712Y16545181D01*
X21285712Y16068991D02*
X20714284Y16068991D01*
X20714284Y15545181D02*
X20714284Y16545181D01*
%LPC*%
D12*
%TO.C,H1*%
X3600000Y42400000D03*
%TD*%
D13*
%TO.C,J3*%
X43110000Y6400000D03*
X48890000Y6400000D03*
D14*
X41680000Y6930000D03*
D15*
X41680000Y2720000D03*
D14*
X50320000Y6930000D03*
D15*
X50320000Y2720000D03*
%TD*%
D12*
%TO.C,H3*%
X3600000Y3600000D03*
%TD*%
%TO.C,H2*%
X68400000Y42400000D03*
%TD*%
%TO.C,H4*%
X68400000Y3600000D03*
%TD*%
D16*
%TO.C,J1*%
X4400000Y27000000D03*
X4400000Y22000000D03*
X4400000Y17000000D03*
%TD*%
%LPD*%
M02*
